<?xml version="1.0" encoding="UTF-8" standalone="no"?>
<!-- Created with Inkscape (http://www.inkscape.org/) -->

<svg
   width="845"
   height="373.61743"
   viewBox="0 0 845 373.61743"
   version="1.1"
   id="svg1"
   sodipodi:docname="banner_kort.svg"
   inkscape:version="1.4.3 (0d15f75042, 2025-12-25)"
   xmlns:inkscape="http://www.inkscape.org/namespaces/inkscape"
   xmlns:sodipodi="http://sodipodi.sourceforge.net/DTD/sodipodi-0.dtd"
   xmlns="http://www.w3.org/2000/svg"
   xmlns:svg="http://www.w3.org/2000/svg">
  <sodipodi:namedview
     id="namedview1"
     pagecolor="#ffffff"
     bordercolor="#000000"
     borderopacity="0.25"
     inkscape:showpageshadow="2"
     inkscape:pageopacity="0.0"
     inkscape:pagecheckerboard="0"
     inkscape:deskcolor="#d1d1d1"
     inkscape:zoom="1.0513786"
     inkscape:cx="295.80209"
     inkscape:cy="273.45049"
     inkscape:window-width="1856"
     inkscape:window-height="1137"
     inkscape:window-x="0"
     inkscape:window-y="0"
     inkscape:window-maximized="1"
     inkscape:current-layer="svg1" />
  <defs
     id="defs1" />
  <path
     d="m 789.33691,283.57044 c -1.17519,1.93905 -2.21266,4.14389 -3.11132,6.61523 h 3.11132 z"
     style="stroke-width:0.974776"
     id="path371" />
  <path
     d="m 809.68652,272.29896 c -5.40066,0 -10.11083,1.44706 -14.12891,4.34179 -2.38494,1.71093 -4.45793,4.02111 -6.2207,6.92969 v 6.61523 h -3.11132 c 0.89867,-2.47134 1.93614,-4.67618 3.11132,-6.61523 v -9.97656 h -10.75977 v 68.4375 h 11.01758 V 301.9806 c 0,-4.62295 0.79984,-8.36135 2.39844,-11.21289 1.64179,-2.89476 3.82299,-5.01025 6.54493,-6.34961 2.72191,-1.33936 5.74742,-2.00977 9.07421,-2.00977 3.11054,0 5.79444,0.55496 8.05079,1.66211 1.47251,0.72277 2.76415,1.6808 3.87303,2.875 2.85155,2.98116 4.27735,7.4305 4.27735,13.34961 v 41.73633 h 11.01758 v -42.51367 c 0,-6.09194 -1.14568,-11.14793 -3.43555,-15.16602 -2.24667,-4.01807 -5.27021,-7.02037 -9.07227,-9.00781 -3.80206,-2.03064 -8.01377,-3.04492 -12.63671,-3.04492 z"
     style="stroke-width:0.974776"
     id="path370" />
  <path
     d="m 475.34278,272.29896 c -2.93796,0 -5.78956,0.43082 -8.55469,1.29492 -2.76514,0.82089 -5.27094,2.07476 -7.51758,3.75976 -2.24669,1.685 -4.10524,3.80245 -5.57423,6.35157 h -0.12891 v -10.11133 h -10.7578 v 95.52734 h 11.01562 v -37.45898 h 0.13086 c 1.64178,2.63551 3.56412,4.81672 5.76757,6.54492 2.20349,1.72821 4.62231,3.00332 7.25782,3.82422 2.63551,0.86411 5.42337,1.29687 8.36133,1.29687 5.96231,0 11.16899,-1.49149 15.61914,-4.47265 4.45012,-3.02438 7.90644,-7.19359 10.36914,-12.50782 2.4627,-5.35744 3.69336,-11.53591 3.69336,-18.53515 0,-7.04246 -1.23066,-13.22091 -3.69336,-18.53516 -2.4627,-5.35743 -5.91902,-9.52665 -10.36914,-12.50781 -4.45015,-2.98116 -9.65683,-4.4707 -15.61913,-4.4707 z m -1.68555,9.8496 c 3.97487,2e-5 7.47368,0.9718 10.49805,2.91602 3.02436,1.94424 5.40069,4.81904 7.12889,8.62109 1.72823,3.80208 2.59375,8.51028 2.59375,14.12696 0,5.57346 -0.86552,10.26238 -2.59375,14.06445 -1.7282,3.80205 -4.10453,6.6749 -7.12889,8.61914 -3.02437,1.94423 -6.52319,2.91602 -10.49805,2.91602 -4.2341,0 -7.90679,-1.05874 -11.01758,-3.17578 -3.11077,-2.11706 -5.50837,-5.09811 -7.19336,-8.94336 -1.68501,-3.84528 -2.52734,-8.33907 -2.52734,-13.48047 0,-5.18463 0.84233,-9.69965 2.52734,-13.54492 1.68499,-3.84526 4.08259,-6.8263 7.19336,-8.94336 3.11079,-2.11704 6.78348,-3.17579 11.01758,-3.17579 z"
     style="stroke-width:0.974776"
     id="path369" />
  <path
     d="m 733.99121,272.03919 c -6.30797,0 -11.86049,1.53399 -16.65625,4.60156 -4.75258,3.06759 -8.46776,7.30054 -11.14648,12.70117 -2.63553,5.40066 -3.95313,11.60036 -3.95313,18.59961 0,6.95604 1.3176,13.11326 3.95313,18.47071 2.67872,5.35744 6.3939,9.5711 11.14648,12.63867 4.79576,3.02437 10.34828,4.53515 16.65625,4.53515 6.35117,1e-5 11.90174,-1.51078 16.6543,-4.53515 4.75258,-3.06757 8.44651,-7.28123 11.08203,-12.63867 2.67872,-5.35745 4.01953,-11.51467 4.01953,-18.47071 0,-6.99925 -1.34081,-13.19895 -4.01953,-18.59961 -2.63552,-5.40063 -6.32945,-9.63358 -11.08203,-12.70117 -4.75256,-3.06757 -10.30313,-4.60156 -16.6543,-4.60156 z m 0,9.98047 c 4.32052,0 8.01446,1.07998 11.08203,3.24023 3.06758,2.16026 5.4207,5.1838 7.0625,9.07227 1.64179,3.84527 2.4629,8.38154 2.46289,13.60937 1e-5,5.14141 -0.8211,9.65645 -2.46289,13.54493 -1.6418,3.84526 -3.99492,6.8263 -7.0625,8.94335 -3.06756,2.11707 -6.76151,3.17579 -11.08203,3.17579 -4.32052,0 -8.01641,-1.05873 -11.08398,-3.17579 -3.06758,-2.11704 -5.4207,-5.09809 -7.0625,-8.94335 -1.64179,-3.84528 -2.46289,-8.36031 -2.46289,-13.54493 0,-5.22783 0.8211,-9.78534 2.46289,-13.67382 1.6418,-3.88846 3.99492,-6.89076 7.0625,-9.00782 3.11077,-2.16025 6.80665,-3.24023 11.08398,-3.24023 z"
     style="stroke-width:0.974776"
     id="path368" />
  <path
     d="m 586.09862,272.03919 c -6.30795,0 -11.86045,1.53399 -16.65625,4.60156 -4.75255,3.06759 -8.46775,7.30054 -11.14648,12.70117 -2.63552,5.40066 -3.95312,11.60036 -3.95312,18.59961 0,6.95604 1.3176,13.11326 3.95312,18.47071 2.67873,5.35744 6.39393,9.5711 11.14648,12.63867 4.79579,3.02437 10.3483,4.53515 16.65625,4.53515 6.35118,1e-5 11.90368,-1.51078 16.65625,-4.53515 4.7526,-3.06757 8.44654,-7.28123 11.08204,-12.63867 2.67872,-5.35745 4.01757,-11.51467 4.01757,-18.47071 0,-6.99925 -1.33885,-13.19895 -4.01757,-18.59961 -2.6355,-5.40063 -6.32944,-9.63358 -11.08204,-12.70117 -4.75257,-3.06757 -10.30507,-4.60156 -16.65625,-4.60156 z m 0,9.98047 c 4.32055,0 8.01446,1.07998 11.08204,3.24023 3.06756,2.16026 5.42266,5.1838 7.06445,9.07227 1.64181,3.84527 2.46289,8.38154 2.46289,13.60937 0,5.14141 -0.82108,9.65645 -2.46289,13.54493 -1.64179,3.84526 -3.99689,6.8263 -7.06445,8.94335 -3.06758,2.11707 -6.76149,3.17579 -11.08204,3.17579 -4.32051,0 -8.01446,-1.05873 -11.08203,-3.17579 -3.06756,-2.11704 -5.42264,-5.09809 -7.06445,-8.94335 -1.64179,-3.84528 -2.46289,-8.36031 -2.46289,-13.54493 0,-5.22783 0.8211,-9.78534 2.46289,-13.67382 1.64181,-3.88846 3.99689,-6.89076 7.06445,-9.00782 3.11078,-2.16025 6.80474,-3.24023 11.08203,-3.24023 z"
     style="stroke-width:0.974776"
     id="path367" />
  <path
     d="m 419.19823,301.52552 c 0.1004,1.0644 0.1504,2.16757 0.1504,3.30664 l 4.73047,-3.30664 z"
     style="stroke-width:0.974776"
     id="path366" />
  <path
     d="m 379.06542,310.98841 c -0.0183,-0.4907 -0.0273,-0.98722 -0.0273,-1.49024 v -4.66601 c 0,-1.13907 0.0487,-2.24224 0.14648,-3.30664 h -5.20117 v 9.46289 z"
     style="stroke-width:0.974776"
     id="path364" />
  <path
     d="m 399.12792,272.03919 c -6.04871,0 -11.40611,1.55522 -16.07226,4.66602 -4.66616,3.06756 -8.31761,7.30248 -10.95313,12.70312 -2.63552,5.40065 -3.95312,11.57716 -3.95312,18.5332 0,6.86962 1.25386,13.0056 3.75976,18.40625 2.50591,5.35745 6.11291,9.56915 10.82227,12.63672 4.75259,3.06757 10.47704,4.60156 17.17384,4.60156 4.96859,1e-5 9.48363,-0.92732 13.54491,-2.78515 4.1045,-1.85783 7.51831,-4.4293 10.24023,-7.71289 2.72195,-3.3268 4.51482,-7.17144 5.37892,-11.53516 h -11.01758 c -0.69129,2.37627 -1.85821,4.47053 -3.5,6.28516 -1.5986,1.81462 -3.6291,3.24042 -6.0918,4.27734 -2.46269,0.99372 -5.3143,1.49024 -8.55468,1.49024 -4.45013,0 -8.22907,-1.01429 -11.33986,-3.04493 -3.11077,-2.07385 -5.4871,-4.92545 -7.12889,-8.55468 -1.42784,-3.24161 -2.2186,-6.91429 -2.37111,-11.01758 h -5.08202 v -9.46289 h 5.20117 c 0.30295,-3.29591 1.0754,-6.2325 2.31641,-8.8125 1.68501,-3.45642 4.01689,-6.11483 6.99805,-7.97266 2.42678,-1.5254 5.18866,-2.43883 8.2832,-2.74023 0.76138,-0.0741 1.54394,-0.11133 2.3457,-0.11133 4.1045,0 7.66898,0.95054 10.69336,2.85156 3.02436,1.85783 5.35821,4.51624 7,7.97266 1.27368,2.58 2.06603,5.51659 2.37695,8.8125 h 4.88086 l -4.73047,3.30664 c 0,-1.13907 -0.05,-2.24224 -0.1504,-3.30664 h -40.01366 c -0.0978,1.0644 -0.14648,2.16757 -0.14648,3.30664 v 4.66601 c 0,0.50302 0.009,0.99954 0.0273,1.49024 h 51.16992 v -3.04688 c 0,-5.31424 -0.73415,-10.15189 -2.20312,-14.51562 -1.42578,-4.40692 -3.49877,-8.20906 -6.22071,-11.40625 -2.72192,-3.19718 -6.0063,-5.66046 -9.85156,-7.38867 -1.90103,-0.86411 -3.91992,-1.51144 -6.05859,-1.94336 -2.13812,-0.43167 -4.39785,-0.64844 -6.77344,-0.64844 z"
     style="stroke-width:0.974776"
     id="path363" />
  <path
     d="m 522.84667,283.05677 v -9.46289 h -12.18358 v 9.46289 z"
     style="stroke-width:0.974776"
     id="path362" />
  <path
     d="m 533.86425,283.05677 h -11.01758 v 43.55078 c 0,5.14141 1.44705,9.0073 4.34181,11.59961 2.89475,2.54911 7.28034,3.82422 13.15625,3.82422 h 3.69336 3.6953 v -9.46289 h -3.17578 -3.17578 c -2.80834,0 -4.77511,-0.51777 -5.89844,-1.55469 -1.08013,-1.08014 -1.61914,-2.9387 -1.61914,-5.57422 z"
     style="stroke-width:0.974776"
     id="path361" />
  <path
     d="m 533.86425,273.59388 h -11.01758 v 9.46289 h 11.01758 z"
     style="stroke-width:0.974776"
     id="path360" />
  <path
     d="m 533.86425,273.59388 v 9.46289 h 13.86914 v -9.46289 z"
     style="stroke-width:0.974776"
     id="path359" />
  <path
     d="m 522.84667,254.92981 v 18.66407 h 11.01758 v -18.66407 z"
     style="stroke-width:0.974776"
     id="path358" />
  <path
     d="m 678.38573,245.46692 v 38.23829 h -0.13086 c -1.46898,-2.54912 -3.30435,-4.66657 -5.5078,-6.35157 -2.20346,-1.685 -4.66674,-2.93887 -7.38868,-3.75976 -2.67873,-0.8641 -5.50906,-1.29492 -8.49023,-1.29492 -5.91912,0 -11.12386,1.48954 -15.61719,4.4707 -4.45015,2.98116 -7.90644,7.15038 -10.36914,12.50781 -2.4627,5.31425 -3.69531,11.4927 -3.69531,18.53516 0,6.99924 1.23261,13.17771 3.69531,18.53515 2.4627,5.31423 5.91899,9.48344 10.36914,12.50782 4.49333,2.98116 9.69807,4.47265 15.61719,4.47265 2.98117,0 5.79026,-0.43276 8.42578,-1.29687 2.67872,-0.8209 5.14201,-2.09601 7.38868,-3.82422 2.24665,-1.7282 4.19021,-3.90941 5.83203,-6.54492 h 0.12891 v 10.36914 h 10.75976 v -96.56446 z m -19.83203,36.68164 c 4.2341,1e-5 7.9068,1.05875 11.01758,3.17579 3.11077,2.11706 5.50835,5.0981 7.19336,8.94336 1.68499,3.84527 2.52734,8.36029 2.52734,13.54492 0,5.1414 -0.84235,9.63519 -2.52734,13.48047 -1.68501,3.84525 -4.08259,6.8263 -7.19336,8.94336 -3.11078,2.11704 -6.78348,3.17578 -11.01758,3.17578 -3.93168,0 -7.43048,-0.97179 -10.49804,-2.91602 -3.02436,-1.94424 -5.40071,-4.81709 -7.12891,-8.61914 -1.72821,-3.80207 -2.59375,-8.49099 -2.59375,-14.06445 0,-5.61668 0.86554,-10.32488 2.59375,-14.12696 1.7282,-3.80205 4.10455,-6.67685 7.12891,-8.62109 3.06756,-1.94422 6.56636,-2.916 10.49804,-2.91602 z"
     style="stroke-width:0.974776"
     id="path357" />
  <path
     d="m 342.4873,245.46692 v 81.14063 c 0,5.57347 1.33886,9.54755 4.01757,11.92383 2.67874,2.33308 7.17251,3.5 13.48047,3.5 h 1.55469 1.61914 v -9.46289 h -1.35937 -1.29688 c -2.80833,0 -4.68815,-0.45207 -5.63866,-1.35938 -0.90731,-0.95052 -1.36134,-2.87478 -1.36134,-5.76953 v -79.97266 z"
     style="stroke-width:0.974776"
     id="path356" />
  <path
     d="m 167.69629,76.841915 c 0.0309,0.026 0.0609,0.0522 0.0918,0.0781 L 98.264645,115.05478 c -0.0384,-0.0227 -0.0768,-0.0457 -0.11523,-0.0684 l -1.54297,0.8457 c 0.28868,1.59784 1.4929,2.61434 2.48633,3.69922 1.038125,1.13755 1.547735,1.99221 0.962895,3.60351 -0.803235,2.2186 0.48669,4.26743 1.21875,6.30469 0.0955,0.26614 0.96597,0.25514 1.5742,0.39844 -0.85487,1.51967 -0.31732,2.3411 1.3086,3.02539 1.62689,0.68429 3.04666,1.70108 3.46094,3.79687 0.56047,2.83951 2.4371,4.5143 5.41601,4.83985 0.53221,0.0596 1.0345,0.3882 1.74219,0.66601 -0.85096,0.33436 -1.49238,0.58736 -2.13281,0.83789 0.0154,0.15502 0.0332,0.31082 0.0488,0.4668 0.7194,-0.0231 1.45343,-0.15023 2.1504,-0.043 0.72328,0.11114 1.40753,0.45456 2.11132,0.69727 -0.29829,0.54102 -0.55823,1.11029 -0.90429,1.61523 -0.28266,0.4133 -0.70171,0.73705 -1,1.14258 -0.83149,1.12975 -0.16624,2.89115 1.19726,3.18164 0.27001,0.0596 0.56106,0.0226 0.84375,0.0352 3.671,0.16657 3.58066,0.16205 3.37305,3.88867 -0.21842,3.89327 1.1756,7.39361 3.20703,10.61914 0.34604,0.5488 1.38497,0.62186 2.02539,1.03906 0.60047,0.39383 1.23796,0.8673 1.5957,1.46289 0.5722,0.95433 0.98897,2.0117 1.36719,3.06641 0.49323,1.37638 0.84338,2.54636 2.76758,2.78515 0.74766,0.0916 1.3418,1.96399 1.88672,3.08594 0.96211,1.98855 1.83566,4.02128 2.74609,6.03321 0.24666,0.54102 0.60862,1.05766 0.72461,1.62304 0.44936,2.25856 1.51475,3.34807 3.71094,3.57422 1.28865,0.13166 2.21967,0.48829 3.26172,1.55859 1.26525,1.29643 3.35177,1.78773 5.07031,2.6504 0.95429,0.47765 1.90599,0.97658 2.82813,1.51367 2.06457,1.198 4.08975,2.4543 6.16992,3.62304 1.47582,0.82759 2.08931,2.22809 1.79492,4.12891 -0.231,1.49139 -0.92223,2.83515 -0.57617,4.54492 0.18326,0.89095 -1.31916,2.12468 -2.28516,3.54102 -0.37819,-2.04116 -1.44891,-2.93159 -2.88476,-2.36719 -2.56171,1.00986 -5.29086,0.66045 -7.86329,1.35742 -2.30242,0.62387 -4.60187,1.25995 -6.90429,1.88867 -0.10728,0.031 -0.22379,0.11521 -0.32227,0.0957 -4.08141,-0.76324 -7.91838,0.81912 -11.875,1.24023 -4.68479,0.49713 -9.35036,1.17289 -14.03125,1.72266 -5.64785,0.65991 -11.31207,1.20154 -16.943355,1.9414 -2.48568,-0.99526 -5.44315,0.50053 -6.39453,2.91797 -1.04983,2.66893 0.3464,5.43276 2.85938,6.57422 0.82758,0.37431 1.65776,0.75265 2.48437,1.12695 0.78372,4.28708 4.41586,7.65765 8.595695,8.41016 -0.57218,0.37432 -1.12201,0.77232 -1.61914,1.2168 -0.81201,0.72426 -1.996415,1.70359 -1.10547,3.01562 0.83146,1.22531 1.83643,2.51314 3.68946,1.68946 0.72818,0.85096 0.11057,3.26577 1.79687,2.27148 2.68064,1.33154 4.93297,2.45427 7.26758,3.61133 0.23485,2.23127 1.06586,2.97289 4.51367,3.63672 1.26427,0.24281 2.56486,0.32241 3.85352,0.39843 1.27695,0.0749 2.56146,0.0565 4.12109,0.0801 -0.38989,0.53319 -0.66486,1.1052 -1.10547,1.47852 -2.19909,1.85793 -2.25776,3.66753 -0.13867,5.56055 0.50883,0.45327 1.02911,0.91503 1.45899,1.4414 1.4953,1.8287 1.48483,1.84077 3.33789,1.82031 0.27878,0.60827 0.38158,1.39098 0.77148,1.57813 1.53528,0.74374 2.98308,1.98884 4.92774,1.24023 0.24666,-0.0955 0.74733,0.005 0.89453,0.19532 0.68429,0.87438 1.14116,1.98954 1.96484,2.67773 0.73595,0.61217 1.83088,0.82963 2.79688,1.12305 0.40648,0.12371 0.97815,0.14325 1.32421,-0.0508 2.08798,-1.20483 4.39455,-0.15439 6.53907,-0.69141 0.13064,-0.0321 0.29829,0.0909 0.54492,0.16992 -0.37822,0.38212 -0.70437,0.70925 -1.38086,1.38086 2.76057,0.49716 5.07005,1.43673 7.58789,0.49414 0.44936,-0.16683 0.98707,-0.46267 1.38867,-0.35156 1.55086,0.43378 3.06331,1.00679 4.5586,1.51562 -0.27489,0.17556 -0.71515,0.45102 -1.41602,0.88868 1.90083,1.40369 3.87299,1.84796 5.96484,2.00781 0.75546,0.0557 1.53063,0.096 2.25391,0.29492 1.86573,0.51274 3.8413,-0.13231 5.16992,-1.97266 4.40305,-6.11282 8.9372,-12.14144 13.0332,-18.45312 1.71855,-2.64458 3.86943,-4.00169 6.69727,-4.40039 4.71205,-0.6638 9.10945,-2.19009 13.4082,-4.14258 0.87147,-0.3977 1.74045,-0.62947 2.91407,0.0352 1.27307,0.7233 3.0145,0.63231 4.5332,0.89062 -0.53322,1.63956 0.72016,2.7905 1.48828,4.12305 0.22329,0.38599 0.58666,0.96733 0.44727,1.25 -0.95433,1.96029 0.28878,3.61942 0.66992,5.37305 0.0798,0.37041 0.68436,0.67134 1.10156,0.91796 0.96698,0.56926 1.97638,1.05868 2.94336,1.62696 1.39978,0.82758 2.15054,1.98459 2.22266,3.70703 0.0272,0.64042 0.73546,1.61752 1.32812,1.79687 1.79749,0.54587 2.45226,1.85638 3.04492,3.40821 0.22612,0.59169 0.76665,1.28459 1.33203,1.5 4.29487,1.64252 8.61831,3.22149 12.96094,4.72851 1.30814,0.45424 2.72027,0.59142 4.07617,0.91797 0.45912,0.11011 1.20034,0.28566 1.26953,0.56445 0.43572,1.83358 2.05127,1.94025 3.375,2.38086 1.67955,0.5605 3.39686,0.91236 3.5879,3.1875 0.0282,0.34506 0.77825,0.7474 1.26367,0.92188 1.63374,0.59269 3.31937,1.03534 4.9375,1.66406 0.49713,0.19019 0.86787,0.76254 1.24414,1.20313 0.66868,0.78859 1.15482,1.83397 1.97265,2.37109 3.42148,2.24002 7.1015,3.79142 11.32032,3.48047 0.55367,-0.04 1.09595,-0.22484 1.77539,-0.3711 0.0359,0.56831 0.0647,1.09477 0.0996,1.64649 0.48545,0.0798 0.9542,0.15936 1.53906,0.25586 -0.1481,0.51274 -0.26288,0.92257 -0.37109,1.30078 0.54295,1.07712 2.57069,0.97819 4.9082,-0.25977 -0.34116,1.07811 -0.36843,1.88744 1.0957,1.74024 1.66587,-0.17068 2.49219,0.4748 2.49219,2.17383 0,1.85696 1.4406,2.56447 2.60547,3.10156 0.71547,0.33046 2.07192,-0.32223 2.95117,-0.84375 0.88706,-0.52441 1.54264,-1.43421 2.43359,-2.30078 0.53319,2.1562 -1.23713,3.24885 -2.21484,4.74804 0.64726,0.42891 1.10844,0.92215 1.66211,1.07032 1.39589,0.36944 2.86459,0.50062 3.04297,2.4414 v 0.002 l 0.002,0.002 v 0.002 c 2.1e-4,5e-4 0.003,0.003 0.004,0.004 0,0 0,0.002 0,0.002 0.0926,0.13554 1.40701,0.38685 1.94726,0.16016 1.92131,-0.80807 3.56279,-0.68486 4.25196,1.2793 1.00499,2.87073 4.00722,3.82295 5.28125,6.33593 0.24562,0.48933 1.10962,0.67062 1.78906,1.05274 -0.20764,0.15117 -0.43793,0.32746 -0.67188,0.48633 -0.9504,0.63655 -0.76677,1.22908 0.18361,1.53125 2.63287,0.83149 5.19673,2.05047 8.11522,1.34375 0.3753,-0.0916 1.17998,0.41774 1.35157,0.82812 1.10442,2.65723 3.00493,4.34645 5.70508,5.28125 0.45326,0.15502 0.87628,0.82516 1.03516,1.33789 0.56148,1.82578 0.86742,3.73764 1.53125,5.51953 0.4016,1.07031 1.26983,1.96855 1.9668,2.91797 0.363,0.4974 0.68984,1.05616 1.08398,1.52149 v -88.96094 c -3.05998,-1.59225 -6.12786,-3.16735 -9.16211,-4.8125 -5.47141,-2.96623 -10.91523,-5.9929 -16.34375,-9.03906 -4.70233,-2.63677 -9.40204,-5.29216 -14.03711,-8.03907 -2.02558,-1.20093 -3.88443,-2.67529 -5.83789,-4.0039 -1.74192,-1.18532 -3.50716,-2.33809 -5.26953,-3.51563 1.26817,-1.57425 2.49484,-2.83568 3.4043,-4.28711 1.37639,-2.19911 1.86074,-4.59331 0.47656,-7.02344 -0.16376,-0.28659 -0.41359,-0.63903 -0.67969,-0.84179 -4.34264,-7.18215 -10.60293,-12.37659 -18.26758,-15.90039 -4.3748,-2.01196 -8.9353,-3.60858 -13.60351,-4.78125 -1.86961,-1.09759 -3.7985,-2.22362 -5.76367,-3.28516 -3.37758,-1.82867 -6.52867,-3.8428 -8.84375,-7.05273 -0.91413,-1.26787 -2.41421,-2.11123 -3.9004,-3.36328 v -0.002 c 0.003,-0.0457 -0.0635,-0.58127 -0.36328,-0.79297 -1.37248,-0.97768 -2.79763,-1.89044 -4.28515,-2.86132 -0.38892,-0.7915 -1.00533,-1.25268 -1.78907,-1.6543 -0.39769,-0.20277 -0.79566,-0.40859 -1.19726,-0.61133 -0.2233,-0.20661 -0.46039,-0.41152 -0.69922,-0.63086 -1.71464,-1.54696 -3.14921,-3.41828 -4.63672,-5.20312 -3.19728,-3.83378 -6.5201,-7.57668 -9.48633,-11.58594 -4.10868,-5.54746 -8.08016,-11.20591 -11.84961,-16.98828 -5.61179,-8.6102 -11.25551,-17.22332 -16.40625,-26.11134 -4.87505,-8.418625 -9.26167,-17.120665 -13.90039,-25.679685 z M 279.02636,211.48646 c 0.17685,-0.0103 0.35955,-0.009 0.54687,0.002 0.21405,0.0128 0.43401,0.0393 0.65625,0.0801 -0.50781,1.07805 -0.99642,2.10823 -1.69725,3.58398 -0.72328,-0.9426 -1.59481,-1.56765 -1.62891,-2.24023 -0.0462,-0.81945 0.88531,-1.36208 2.12304,-1.42578 z"
     style="stroke-width:0.974776"
     id="path254" />
  <path
     d="m 279.02636,211.48646 c -1.23773,0.0637 -2.16924,0.60633 -2.12304,1.42578 0.0341,0.67258 0.90562,1.29763 1.62891,2.24023 0.70083,-1.47575 1.18944,-2.50593 1.69726,-3.58398 -0.22224,-0.0408 -0.4422,-0.0673 -0.65625,-0.0801 -0.18732,-0.011 -0.37003,-0.0123 -0.54687,-0.002 z"
     style="fill:none;stroke-width:8.96559"
     id="path355" />
  <path
     d="m 63.991205,84.404415 a 1.8458141,1.8458141 0 0 0 -0.34179,3.64258 l 15.23242,3.5625 a 1.8458141,1.8458141 0 0 0 0.84179,-3.59179 l -15.23242,-3.56641 a 1.8458141,1.8458141 0 0 0 -0.5,-0.0469 z"
     style="stroke-width:0.974776"
     id="path354" />
  <path
     d="m 136.69237,65.517705 h 4.10744 c -1.37484,-1.13265 -2.74533,-2.27152 -4.10743,-3.41797 z"
     id="path352" />
  <path
     d="m 150.02051,73.101685 v -6.07813 h -7.38672 c 1.19125,0.97714 2.38335,1.95207 3.57422,2.92969 1.27385,1.04575 2.54638,2.09457 3.8125,3.14844 z"
     style="stroke-width:0.679087"
     id="path351" />
  <path
     d="m 150.02051,74.578245 c 0.0827,0.0513 0.16524,0.103 0.24805,0.1543 0.50075,0.30852 1.10364,0.44993 1.65625,0.66601 -0.15934,-0.74352 -0.51942,-1.14108 -0.93164,-1.48632 -0.32374,-0.27105 -0.64809,-0.54039 -0.97266,-0.81055 z"
     style="stroke-width:0.679087"
     id="path350" />
  <path
     d="m 136.69237,67.023555 h 1.08985 c -0.3636,-0.22455 -0.72633,-0.44911 -1.08985,-0.67382 z"
     style="stroke-width:0.679087"
     id="path349" />
  <path
     d="m 131.24316,74.898555 c 0.44484,0.17087 0.88845,0.34159 1.33203,0.51563 -0.39682,-0.21127 -0.80346,-0.40881 -1.21093,-0.59961 z"
     style="stroke-width:0.264583"
     id="path348" />
  <path
     d="m 113.76074,77.472775 -1.60351,-2.43359 v 2.43359 z"
     style="stroke-width:0.264583"
     id="path347" />
  <path
     d="m 127.33692,77.472775 h -13.57618 l 1.33788,2.02539 c 0.19187,0.29081 0.40945,0.55577 0.6465,0.79297 0.15841,0.15852 0.32882,0.29974 0.50391,0.4336 0.0659,0.0503 0.13125,0.10164 0.19921,0.14843 0.0607,0.0418 0.12331,0.0802 0.18555,0.11914 0.0802,0.0502 0.16155,0.0991 0.24414,0.14454 0.0426,0.0234 0.0858,0.0462 0.12891,0.0684 0.0907,0.0465 0.18234,0.0901 0.27539,0.13085 0.0572,0.0251 0.1139,0.0494 0.17187,0.0723 0.0876,0.0346 0.17642,0.0661 0.26563,0.0957 0.0512,0.017 0.10257,0.0354 0.1543,0.0508 0.10452,0.031 0.21016,0.0559 0.3164,0.0801 0.0463,0.0105 0.0921,0.022 0.13867,0.0312 0.30068,0.0597 0.60652,0.0933 0.91407,0.0977 0.0409,5.8e-4 0.0821,-0.002 0.12304,-0.002 0.1042,-10e-4 0.20826,-0.004 0.3125,-0.0117 0.0638,-0.005 0.12768,-0.0125 0.19141,-0.0195 0.0976,-0.0108 0.19579,-0.0225 0.29297,-0.0391 0.0562,-0.01 0.11192,-0.0216 0.16797,-0.0332 0.0875,-0.018 0.17484,-0.0377 0.26172,-0.0605 0.0719,-0.0189 0.14349,-0.0403 0.21484,-0.0625 0.0926,-0.0289 0.18388,-0.0612 0.27539,-0.0957 0.0456,-0.0172 0.0915,-0.0322 0.13672,-0.0508 0.10338,-0.0424 0.20522,-0.0908 0.30664,-0.14063 0.0515,-0.0253 0.10336,-0.049 0.1543,-0.0762 0.13871,-0.0741 0.2763,-0.15377 0.41015,-0.24219 z"
     id="path346" />
  <path
     d="m 133.25292,77.472775 v -3.90234 l -1.88867,1.24414 c 0.40748,0.1908 0.81411,0.38834 1.21094,0.59961 -0.44358,-0.17404 -0.88719,-0.34476 -1.33203,-0.51563 h -0.002 l -3.90429,2.57422 z"
     style="stroke-width:0.264583"
     id="path345" />
  <path
     d="m 135.31542,72.211055 -2.0625,1.35938 v 3.90234 h 3.43945 v -0.93164 h -1.37695 z"
     style="stroke-width:0.679087"
     id="path344" />
  <path
     d="m 136.69237,71.302855 v -4.2793 h -1.37695 v 5.1875 z"
     style="stroke-width:0.679087"
     id="path343" />
  <path
     d="m 136.69237,71.302855 -1.37695,0.9082 v 4.33008 h 1.37695 z"
     style="stroke-width:0.679087"
     id="path342" />
  <path
     d="m 140.47362,68.681765 c -0.89673,-0.55303 -1.795,-1.10459 -2.6914,-1.65821 h -1.08985 v 4.2793 l 2.98438,-1.96875 c 0.29235,-0.19286 0.5587,-0.41384 0.79687,-0.65234 z"
     style="stroke-width:0.679087"
     id="path341" />
  <path
     d="m 140.47362,68.681765 c -0.23817,0.2385 -0.50452,0.45948 -0.79687,0.65234 l -2.98438,1.96875 v 5.23828 h 13.32813 v -1.96289 c -3.17859,-1.97126 -6.363,-3.93298 -9.54688,-5.89648 z"
     style="stroke-width:0.679087"
     id="path340" />
  <path
     d="m 141.57323,67.023555 h -3.79101 c 0.8964,0.55362 1.79467,1.10518 2.6914,1.65821 0.48204,-0.48271 0.85157,-1.04752 1.09961,-1.65821 z"
     style="stroke-width:0.679087"
     id="path339" />
  <path
     d="m 141.57323,67.023555 c -0.24804,0.61069 -0.61757,1.1755 -1.09961,1.65821 3.18388,1.9635 6.36829,3.92522 9.54688,5.89648 v -1.47656 c -2.44981,-2.03913 -4.92116,-4.05573 -7.38672,-6.07813 z"
     style="stroke-width:0.679087"
     id="path338" />
  <path
     d="m 141.79589,66.336055 c -0.33203,-0.27277 -0.66446,-0.54515 -0.99609,-0.81835 h -4.10743 v 0.83203 c 0.36351,0.22471 0.72624,0.44927 1.08985,0.67382 h 3.79101 c 0.091,-0.22393 0.16466,-0.45361 0.22266,-0.6875 z"
     style="stroke-width:0.679087"
     id="path337" />
  <path
     d="m 141.79589,66.336055 c -0.058,0.23389 -0.13169,0.46357 -0.22266,0.6875 h 1.06056 c -0.27935,-0.22914 -0.55873,-0.45815 -0.8379,-0.6875 z"
     style="stroke-width:0.679087"
     id="path336" />
  <path
     d="m 141.93066,65.517705 h -1.13086 c 0.33163,0.2732 0.66406,0.54558 0.99609,0.81835 0.0666,-0.26868 0.11267,-0.54206 0.13477,-0.81835 z"
     style="stroke-width:0.679087"
     id="path335" />
  <path
     d="m 141.93066,65.517705 c -0.0221,0.27629 -0.0682,0.54967 -0.13477,0.81835 0.27916,0.22935 0.55854,0.45836 0.83789,0.6875 h 7.38672 v 6.07813 c 0.32457,0.27016 0.64892,0.5395 0.97266,0.81055 0.41222,0.34524 0.77231,0.7428 0.93164,1.48632 -0.5526,-0.21608 -1.1555,-0.35749 -1.65625,-0.66601 -0.0828,-0.0513 -0.16534,-0.103 -0.24805,-0.1543 v 1.96289 h -13.32813 v 0.93164 h -3.43945 v 6.03125 h 21.57422 v -17.98632 z"
     style="stroke-width:0.679087"
     id="path334" />
  <path
     d="m 136.69237,55.640745 v 6.45899 c 1.3621,1.14645 2.7326,2.28532 4.10744,3.41797 h 1.13086 c 0.0108,-0.13528 0.0157,-0.27017 0.0156,-0.40625 -1e-5,-0.005 2e-5,-0.0124 0,-0.0176 -7.9e-4,-0.13106 -0.007,-0.26162 -0.0176,-0.39258 -0.0224,-0.27232 -0.0673,-0.544 -0.13476,-0.8125 -0.0337,-0.13425 -0.072,-0.26619 -0.11719,-0.39844 0,0 0,-0.002 0,-0.002 -0.0903,-0.2639 -0.20491,-0.52366 -0.3418,-0.77539 -0.0686,-0.12614 -0.14216,-0.25101 -0.22265,-0.37305 z"
     id="path333" />
  <path
     d="m 132.62206,49.472775 4.07031,6.16797 v -6.16797 z"
     style="stroke-width:0.264583"
     id="path332" />
  <path
     d="m 132.59277,49.472775 -5.78321,3.81446 c 0.62622,0.62235 1.26187,1.23468 1.91016,1.83203 2.59796,2.39181 5.26802,4.70401 7.97265,6.98047 v -6.45899 l -4.07031,-6.16797 z"
     style="stroke-width:0.264583"
     id="path331" />
  <path
     d="m 124.80956,51.230595 c 0.65573,0.69758 1.32242,1.38322 2,2.05664 l 5.78321,-3.81446 h -5.11719 z"
     style="stroke-width:0.264583"
     id="path330" />
  <path
     d="m 124.80956,51.230595 2.66602,-1.75782 h -4.2793 c 0.53189,0.59236 1.06897,1.17876 1.61328,1.75782 z"
     style="stroke-width:0.264583"
     id="path329" />
  <path
     d="m 112.15723,59.578245 1.58594,-1.04492 v -1.48047 h -1.58594 z"
     style="stroke-width:0.264583"
     id="path328" />
  <path
     d="m 113.74317,61.908325 v -3.375 l -1.58594,1.04492 v 3.375 z"
     style="stroke-width:0.264583"
     id="path327" />
  <path
     d="m 118.88965,55.136845 -5.14648,3.39648 v 3.375 l 7.73436,-5.10352 c -0.61865,-0.39653 -1.23614,-0.79474 -1.85351,-1.19335 -0.24532,-0.15827 -0.48936,-0.31588 -0.73437,-0.47461 z"
     style="stroke-width:0.264583"
     id="path326" />
  <path
     d="m 118.88965,55.136845 c 0.24501,0.15873 0.48905,0.31634 0.73437,0.47461 0.61737,0.39861 1.23486,0.79682 1.85351,1.19335 l 5.33203,-3.51757 c -0.67758,-0.67342 -1.34427,-1.35906 -2,-2.05664 z"
     style="stroke-width:0.264583"
     id="path325" />
  <path
     d="m 112.15723,50.701295 v 6.35156 h 1.58594 v 1.48047 l 5.14648,-3.39648 c -2.255,-1.46089 -4.49897,-2.94072 -6.73242,-4.43555 z"
     style="stroke-width:0.264583"
     id="path324" />
  <path
     d="m 112.15723,50.701295 c 2.23345,1.49483 4.47743,2.97466 6.73242,4.43555 l 5.91992,-3.90625 c -0.54431,-0.57906 -1.08139,-1.16546 -1.61328,-1.75782 h -11.03906 z"
     style="stroke-width:0.264583"
     id="path323" />
  <path
     d="m 101.8877,43.707155 -1.73047,2.2207 4.92969,3.08985 -2.86134,3.68164 4.92773,3.09179 -0.98047,1.26172 h 5.98439 v -6.35156 c -3.44143,-2.30331 -6.86158,-4.64118 -10.26953,-6.99414 z"
     id="path322" />
  <path
     d="m 101.89746,57.478635 v -0.42578 h 4.27538 l 0.98047,-1.26172 -4.92773,-3.09179 2.86134,-3.68164 -4.92969,-3.08985 1.73047,-2.2207 c -2.302405,-1.58965 -4.599245,-3.18719 -6.894535,-4.78516 -5.38056,-3.74551 -10.47971,-7.90309 -15.91211,-11.5664 -6.33527,-4.27159 -12.88155,-8.22906 -19.3711,-12.25782 -1.0053,-0.62469 -2.23154,-0.90665 -3.93359,-1.57812 0.29969,1.24808 0.30197,1.9782 0.62695,2.51562 3.90486,6.48071 8.08803,12.68114 13.74805,17.90235 5.62967,5.1947 11.81368,9.56717 18.05664,13.91211 4.57938,3.18437 9.1054,6.44903 13.689455,9.6289 z"
     style="stroke-width:0.974776"
     id="path321" />
  <path
     d="m 104.46777,59.246215 1.70507,-2.19336 h -4.27538 v 0.42578 c 0.85453,0.59278 1.7109,1.18172 2.57031,1.76758 z"
     style="stroke-width:0.264583"
     id="path320" />
  <path
     d="m 107.63183,61.308715 c -0.89019,-0.54991 -1.77011,-1.11324 -2.63477,-1.70117 -0.1765,-0.11982 -0.35301,-0.24116 -0.52929,-0.36133 l -0.17579,0.22656 z"
     style="stroke-width:0.264583"
     id="path319" />
  <path
     d="m 107.64942,61.320435 1.01757,0.55859 3.49024,-2.30078 v -2.52539 h -5.98439 l -1.70507,2.19336 c 0.17628,0.12017 0.35278,0.24151 0.52929,0.36133 0.86466,0.58793 1.74458,1.15126 2.63477,1.70117 l 0.0137,0.008 h 0.002 z"
     style="stroke-width:0.264583"
     id="path318" />
  <path
     d="m 111.32324,63.504025 0.83399,-0.55078 v -3.375 l -3.49024,2.30078 -1.01757,-0.55859 c 1.21144,0.74804 2.44131,1.46778 3.67382,2.18359 z"
     style="stroke-width:0.264583"
     id="path317" />
  <path
     d="m 112.15723,63.988405 v -1.03516 l -0.83399,0.55078 c 0.27809,0.16151 0.55577,0.32315 0.83399,0.48438 z"
     style="stroke-width:0.264583"
     id="path316" />
  <path
     d="m 113.74317,64.910275 v -3.00195 l -1.58594,1.04492 v 1.03516 c 0.52903,0.30659 1.05822,0.61364 1.58594,0.92187 z"
     style="stroke-width:0.264583"
     id="path315" />
  <path
     d="m 113.74317,64.910275 c -0.52773,-0.30823 -1.05691,-0.61528 -1.58594,-0.92187 v 2.09765 h 1.58594 z"
     style="stroke-width:0.264583"
     id="path314" />
  <path
     d="m 128.64551,61.345825 c -2.39666,-1.50226 -4.78634,-3.01447 -7.16797,-4.54102 l -7.73437,5.10352 v 3.00195 c 0.0706,0.0412 0.13848,0.0817 0.20898,0.12305 1.60723,0.94188 3.21774,1.88266 4.82813,2.82031 z"
     style="stroke-width:0.264583"
     id="path313" />
  <path
     d="m 135.39551,65.517705 h 1.29686 v -3.41797 c -2.70463,-2.27646 -5.37469,-4.58866 -7.97265,-6.98047 -0.64829,-0.59735 -1.28394,-1.20968 -1.91016,-1.83203 l -5.33203,3.51757 c 2.38163,1.52655 4.77131,3.03876 7.16797,4.54102 l 2.87891,-1.89844 3.69336,5.60157 c 0.0959,0.14578 0.15533,0.30624 0.17774,0.46875 z"
     style="stroke-width:0.264583"
     id="path312" />
  <path
     d="m 135.39551,65.517705 c -0.0224,-0.16251 -0.0818,-0.32297 -0.17773,-0.46875 l -3.69337,-5.60157 -2.8789,1.89844 c 2.22915,1.39727 4.46438,2.78706 6.70116,4.17188 z"
     style="stroke-width:0.264583"
     id="path311" />
  <path
     d="m 135.39745,65.548955 c 0.43112,0.26689 0.86366,0.53416 1.29492,0.80078 v -0.83203 h -1.29686 c 0.001,0.0108 6e-4,0.0205 0.002,0.0312 z"
     style="stroke-width:0.679087"
     id="path310" />
  <path
     d="m 133.25292,67.707155 v 5.86328 l 2.0625,-1.35938 v -5.1875 h 1.37695 v -0.67382 c -0.43127,-0.26662 -0.8638,-0.53389 -1.29492,-0.80078 0.0446,0.41006 -0.13266,0.83266 -0.5,1.07421 z"
     style="stroke-width:0.679087"
     id="path309" />
  <path
     d="m 133.25292,67.707155 1.64453,-1.08399 c 0.36734,-0.24155 0.54456,-0.66415 0.5,-1.07421 -0.0175,-0.0109 -0.0333,-0.0205 -0.0508,-0.0312 h -2.09375 z"
     style="stroke-width:0.679087"
     id="path308" />
  <path
     d="m 126.37987,72.236455 c 0.63645,0.36303 1.27468,0.72687 1.91211,1.08789 0.98777,0.55873 2.0384,1.00613 3.07228,1.49023 l 1.88866,-1.24414 v -5.86328 z"
     style="stroke-width:0.264583"
     id="path307" />
  <path
     d="m 126.37987,72.236455 6.87305,-4.5293 v -2.18945 h 2.09375 c -2.23678,-1.38482 -4.472,-2.77461 -6.70116,-4.17188 l -9.86523,6.50781 c 2.52786,1.47185 5.05928,2.93376 7.59959,4.38282 z"
     style="stroke-width:0.264583"
     id="path306" />
  <path
     d="m 125.62987,72.734495 c 1.85918,0.74561 3.7407,1.44558 5.61133,2.16406 h 0.002 l 0.12109,-0.084 c -1.03387,-0.4841 -2.0845,-0.9315 -3.07227,-1.49023 -0.63744,-0.36102 -1.27566,-0.72486 -1.91211,-1.08789 z"
     style="stroke-width:0.264583"
     id="path305" />
  <path
     d="m 117.1123,68.953245 -0.89649,0.59375 3.69337,5.60156 c 0.34422,0.52167 1.05024,0.66758 1.57227,0.32227 l 4.14842,-2.73633 c -1.00011,-0.4011 -1.99384,-0.8189 -2.9785,-1.25781 -1.85365,-0.82696 -3.69854,-1.66969 -5.53907,-2.52344 z"
     style="stroke-width:0.264583"
     id="path304" />
  <path
     d="m 117.1123,68.953245 c 1.84053,0.85375 3.68542,1.69648 5.53907,2.52344 0.98466,0.43891 1.97839,0.85671 2.9785,1.25781 l 0.75,-0.49804 c -2.54031,-1.44906 -5.07174,-2.91097 -7.59959,-4.38282 z"
     style="stroke-width:0.264583"
     id="path303" />
  <path
     d="m 112.15723,66.634885 v 8.4043 l 1.60351,2.43359 h 13.57618 l 3.90428,-2.57422 c -1.87063,-0.71848 -3.75215,-1.41845 -5.61133,-2.16406 l -4.14842,2.73633 c -0.52203,0.34531 -1.22804,0.1994 -1.57227,-0.32227 l -3.69337,-5.60156 0.89649,-0.59375 c -1.65449,-0.76745 -3.30459,-1.54192 -4.95507,-2.31836 z"
     style="stroke-width:0.264583"
     id="path302" />
  <path
     d="m 112.15723,66.634885 c 1.65048,0.77644 3.30058,1.55091 4.95507,2.31836 l 1.66797,-1.09961 c -1.61039,-0.93765 -3.2209,-1.87843 -4.82812,-2.82031 -0.0705,-0.0413 -0.13841,-0.0818 -0.20898,-0.12305 v 1.17578 h -1.58594 z"
     style="stroke-width:0.264583"
     id="path301" />
  <path
     d="m 110.98926,66.086055 h -3.58008 l -0.80664,0.53125 5.55469,8.42188 v -8.4043 c -0.38932,-0.18315 -0.77866,-0.36559 -1.16797,-0.54883 z"
     id="path300" />
  <path
     d="m 110.98926,66.086055 c 0.38931,0.18324 0.77865,0.36568 1.16797,0.54883 v -0.54883 z"
     id="path299" />
  <path
     d="m 108.89746,65.101685 -1.48828,0.98437 h 3.58007 c -0.69629,-0.32771 -1.39516,-0.65707 -2.09179,-0.98437 z"
     style="stroke-width:0.264583"
     id="path298" />
  <path
     d="m 108.89746,65.101685 c 0.69663,0.3273 1.39551,0.65666 2.0918,0.98437 h 1.16797 v -2.09765 c -0.27822,-0.16123 -0.5559,-0.32287 -0.83399,-0.48438 z"
     style="stroke-width:0.264583"
     id="path297" />
  <path
     d="m 101.89746,61.816525 v 4.26953 h 5.51172 l 1.48828,-0.98437 c -0.97325,-0.45726 -1.94491,-0.91285 -2.91993,-1.36719 -1.36217,-0.63392 -2.72172,-1.27466 -4.08007,-1.91797 z"
     style="stroke-width:0.264583"
     id="path296" />
  <path
     d="m 101.89746,61.816525 c 1.35836,0.64331 2.7179,1.28405 4.08007,1.91797 0.97501,0.45434 1.94668,0.90993 2.91993,1.36719 l 2.42578,-1.59766 c -1.23251,-0.71581 -2.46237,-1.43555 -3.67382,-2.18359 l -0.002,-0.004 h -0.002 l -3.35352,-1.84375 0.17579,-0.22656 c -0.85941,-0.58586 -1.71578,-1.1748 -2.57031,-1.76758 z"
     style="stroke-width:0.264583"
     id="path295" />
  <path
     d="m 49.747065,39.558715 c 9.91308,3.86745 19.82717,7.73711 29.63086,11.86914 3.59552,1.5184 7.1528,3.13107 10.69336,4.7832 -0.23577,-0.30418 -0.53997,-0.55281 -0.89062,-0.72656 l -37.96875,-18.73242 z"
     id="path294" />
  <path
     d="m 43.198235,44.312625 3.17188,-6.07422 c -1.52346,-0.5948 -3.04587,-1.1902 -4.56836,-1.78711 -1.47064,-0.57788 -3.12143,-0.72862 -4.71094,-0.92969 -0.56777,-0.0719 -1.18577,0.28414 -1.78515,0.44336 0.19095,0.66005 0.20026,1.47582 0.60742,1.95508 0.93322,1.10391 2.01326,2.10355 3.11719,3.04687 1.36098,1.16318 2.75145,2.27527 4.16796,3.34571 z"
     id="path293" />
  <path
     d="m 43.198235,44.312625 c -1.41651,-1.07044 -2.80698,-2.18253 -4.16796,-3.34571 -1.10393,-0.94332 -2.18397,-1.94296 -3.11719,-3.04687 -0.40716,-0.47926 -0.41647,-1.29503 -0.60742,-1.95508 0.59938,-0.15922 1.21738,-0.51528 1.78515,-0.44336 1.58951,0.20107 3.2403,0.35181 4.71094,0.92969 1.52249,0.59691 3.0449,1.19231 4.56836,1.78711 l 1.64648,-3.1543 -3.10937,-1.625 c -1.66864,-0.8711 -2.31349,-2.92893 -1.44336,-4.5957 l 0.4375,-0.84375 c 2.92131,-5.59594 5.65119,-7.90397 8.31055,-10.07617 1.6949,-1.38219 0.8727,-3.61189 -1.49219,-2.98047 -5.79258,0.7058 -14.90678,2.89644 -19.24219,11.20117 l -5.28711,10.12695 c -0.21776,0.41713 -0.058,0.93355 0.35742,1.15039 l 0.35743,0.1875 c 0.41538,0.21685 0.58103,0.73131 0.36328,1.14844 l -1.25196,2.39649 c -0.21776,0.41713 -0.73305,0.57622 -1.14843,0.35937 l -0.35743,-0.1875 c -0.41538,-0.21685 -0.93263,-0.0538 -1.15039,0.36328 l -3.06054,5.86524 c -0.43461,0.83251 -0.10966,1.8633 0.72461,2.29882 l 7.5,3.91602 c 0.83612,0.43649 1.86623,0.10974 2.30078,-0.72266 l 3.06054,-5.86132 c 0.21776,-0.41714 0.058,-0.93356 -0.35742,-1.15039 l -0.35742,-0.18555 c -0.41713,-0.21776 -0.57909,-0.73131 -0.36133,-1.14844 l 1.25196,-2.39844 c 0.21776,-0.41713 0.73326,-0.57518 1.15039,-0.35742 l 1.10937,0.57813 6.12891,3.19922 z"
     id="path292" />
  <path
     d="m 46.147455,46.455205 3.59961,-6.89649 c -1.12584,-0.43923 -2.25126,-0.88081 -3.37695,-1.32031 l -3.17188,6.07422 c 0.97117,0.73389 1.95382,1.44857 2.94922,2.14258 z"
     style="stroke-width:0.974776"
     id="path291" />
  <path
     d="m 82.155275,65.668095 v -1.09571 h 5.23046 l 2.92774,-5.61328 c 0.0764,-0.14628 0.13523,-0.29936 0.18164,-0.45508 0.007,-0.0241 0.0131,-0.048 0.0195,-0.0723 0.013,-0.0487 0.0251,-0.0972 0.0352,-0.14649 0.007,-0.0356 0.0138,-0.0716 0.0195,-0.10742 0.007,-0.0436 0.0129,-0.087 0.0176,-0.13086 0.004,-0.037 0.007,-0.0742 0.01,-0.11133 0.002,-0.0388 0.003,-0.0783 0.004,-0.11718 6.9e-4,-0.0398 0.003,-0.0793 0.002,-0.11914 -9.6e-4,-0.0334 -0.004,-0.0663 -0.006,-0.0996 -0.003,-0.0497 -0.007,-0.0989 -0.0137,-0.14844 -0.009,-0.0737 -0.0213,-0.14772 -0.0371,-0.2207 -0.0181,-0.0833 -0.0419,-0.16612 -0.0684,-0.24805 -0.034,-0.10353 -0.0753,-0.20331 -0.12109,-0.30078 -0.002,-0.004 -0.004,-0.008 -0.006,-0.0117 -0.0462,-0.0969 -0.0965,-0.19173 -0.1543,-0.28125 -0.0394,-0.061 -0.0806,-0.12039 -0.125,-0.17774 -3.54056,-1.65213 -7.09784,-3.2648 -10.69336,-4.7832 -9.80369,-4.13203 -19.71778,-8.00169 -29.63086,-11.86914 l -3.59961,6.89649 c 6.22116,4.33737 12.90007,7.92337 19.85352,11.12695 5.46721,2.5204 10.80289,5.32109 16.1543,8.08594 z"
     id="path290" />
  <path
     d="m 82.155275,65.668095 c -5.35141,-2.76485 -10.68709,-5.56554 -16.1543,-8.08594 -6.95345,-3.20358 -13.63236,-6.78958 -19.85352,-11.12695 l -0.5,0.95703 36.50782,20.12695 z"
     id="path289" />
  <path
     d="m 85.698235,67.486455 c 0.21097,-0.19617 0.3878,-0.42572 0.52344,-0.68555 l 1.16406,-2.22852 h -5.23046 v 1.09571 c 1.17926,0.60927 2.36052,1.21583 3.54296,1.81836 z"
     style="stroke-width:0.264583"
     id="path288" />
  <path
     d="m 85.698235,67.486455 c -1.18244,-0.60253 -2.3637,-1.20909 -3.54296,-1.81836 v 1.87109 l 0.56835,0.31445 c 0.60084,0.33221 1.31102,0.40698 1.97071,0.20899 0.3769,-0.114 0.72086,-0.31299 1.0039,-0.57617 z"
     style="stroke-width:0.264583"
     id="path287" />
  <path
     d="m 96.430665,72.222775 h 0.44336 v -7.65039 h -9.48829 l -1.16406,2.22852 c -0.13564,0.25983 -0.31247,0.48938 -0.52344,0.68555 1.36112,0.69356 2.7239,1.38161 4.09375,2.05664 2.13582,1.05162 4.39718,1.84784 6.63868,2.67968 z"
     style="stroke-width:0.264583"
     id="path286" />
  <path
     d="m 96.874025,72.386845 v -0.16407 h -0.44336 c 0.14793,0.0549 0.29562,0.10877 0.44336,0.16407 z"
     style="stroke-width:0.679087"
     id="path285" />
  <path
     d="m 95.262695,72.787235 h -3.58399 v 1.96289 h 11.689465 v -2.52735 h -6.494145 v 0.16407 c 0.48041,0.17982 0.95914,0.36106 1.43554,0.54882 -0.0518,0.20611 -0.10911,0.41109 -0.16601,0.61719 -0.56272,-0.13418 -1.13606,-0.23405 -1.6836,-0.39844 -0.39965,-0.1223 -0.7977,-0.24455 -1.19726,-0.36718 z"
     style="stroke-width:0.679087"
     id="path284" />
  <path
     d="m 95.262695,72.787235 c 0.39956,0.12263 0.79761,0.24488 1.19726,0.36718 0.54754,0.16439 1.12088,0.26426 1.6836,0.39844 0.0569,-0.2061 0.11418,-0.41108 0.16601,-0.61719 -0.4764,-0.18776 -0.95513,-0.369 -1.43554,-0.54882 v 0.40039 z"
     style="stroke-width:0.679087"
     id="path283" />
  <path
     d="m 93.424805,72.222775 h -1.7461 v 0.56446 h 3.58399 c -0.61213,-0.18787 -1.22596,-0.37594 -1.83789,-0.56446 z"
     style="stroke-width:0.679087"
     id="path282" />
  <path
     d="m 93.424805,72.222775 c 0.61193,0.18852 1.22576,0.37659 1.83789,0.56446 h 1.61133 v -0.40039 c -0.14774,-0.0553 -0.29543,-0.10916 -0.44336,-0.16407 z"
     style="stroke-width:0.679087"
     id="path281" />
  <path
     d="m 82.155275,68.728635 v 4.0586 h 9.52343 v -0.56446 h 1.7461 c -3.7589,-1.15799 -7.51303,-2.32837 -11.26953,-3.49414 z"
     style="stroke-width:0.264583"
     id="path280" />
  <path
     d="m 82.155275,68.728635 c 3.7565,1.16577 7.51063,2.33615 11.26953,3.49414 h 3.00586 c -2.2415,-0.83184 -4.50286,-1.62806 -6.63868,-2.67968 -1.36985,-0.67503 -2.73263,-1.36308 -4.09375,-2.05664 -0.28304,0.26318 -0.627,0.46217 -1.0039,0.57617 -0.65969,0.19799 -1.36987,0.12322 -1.97071,-0.20899 l -0.56835,-0.31445 z"
     style="stroke-width:0.264583"
     id="path279" />
  <path
     d="m 77.825195,97.500125 -0.79297,-0.1836 v 1.29883 h 0.32617 a 5.3544106,4.0830076 0 0 1 0.4668,-1.11523 z"
     style="stroke-width:0.264583"
     id="path278" />
  <path
     d="m 78.231445,96.970825 h -1.19922 v 0.3457 l 0.79297,0.1836 a 5.3544106,4.0830076 0 0 1 0.40625,-0.5293 z"
     style="stroke-width:0.264583"
     id="path277" />
  <path
     d="m 87.053705,96.970825 a 5.3544106,4.0830076 0 0 1 0.8711,1.64453 h 1.34765 v -1.64453 z"
     style="stroke-width:0.264583"
     id="path276" />
  <path
     d="m 83.379875,95.240355 a 3.6869707,3.6869707 0 0 1 -1.11523,1.73047 h 4.78906 a 5.3544106,4.0830076 0 0 0 -1.59765,-1.16016 5.3544106,4.0830076 0 0 0 -1.35157,-0.45312 5.3544106,4.0830076 0 0 0 -0.72461,-0.11719 z"
     style="stroke-width:0.679087"
     id="path275" />
  <path
     d="m 84.629875,89.921995 -1.19335,5.10547 a 3.6869707,3.6869707 0 0 1 -0.0566,0.21289 3.6869707,3.6869707 0 0 0 0.0586,-0.21289 l 1.19336,-5.10547 a 5.3544106,4.0830076 0 0 0 -0.002,0 z"
     id="path274" />
  <path
     d="m 85.370115,85.541135 c -0.52019,-0.0935 -1.04045,-0.18725 -1.56055,-0.28125 a 5.3544106,4.0830076 0 0 0 -0.60547,1.88477 5.3544106,4.0830076 0 0 0 1.42578,2.77734 l 0.68946,-2.94726 a 3.6869707,3.6869707 0 0 0 0.0508,-1.4336 z"
     style="stroke-width:0.679087"
     id="path273" />
  <path
     d="m 85.370115,85.541135 a 3.6869707,3.6869707 0 0 1 -0.0508,1.4336 l -0.68946,2.94726 a 5.3544106,4.0830076 0 0 0 0.002,0 5.3544106,4.0830076 0 0 0 3.92578,1.3086 5.3544106,4.0830076 0 0 0 5.35351,-4.08594 5.3544106,4.0830076 0 0 0 -5.35351,-4.08008 5.3544106,4.0830076 0 0 0 -1.46289,0.1543 5.3544106,4.0830076 0 0 0 -1.35352,0.45508 c 1.82437,0.71799 3.6497,1.43661 5.47461,2.15234 -0.067,0.24272 -0.13493,0.48377 -0.20703,0.72656 -1.22785,-0.22141 -2.45183,-0.44083 -3.67969,-0.66211 -0.65352,-0.11632 -1.30566,-0.23218 -1.95898,-0.34961 z"
     style="stroke-width:0.679087"
     id="path272" />
  <path
     d="m 84.864255,84.191525 a 5.3544106,4.0830076 0 0 0 -1.05469,1.06836 c 0.5201,0.094 1.04036,0.18776 1.56055,0.28125 a 3.6869707,3.6869707 0 0 0 -0.50586,-1.34961 z"
     style="stroke-width:0.679087"
     id="path271" />
  <path
     d="m 84.864255,84.191525 a 3.6869707,3.6869707 0 0 1 0.50586,1.34961 c 0.65332,0.11743 1.30546,0.23329 1.95898,0.34961 1.22786,0.22128 2.45184,0.4407 3.67969,0.66211 0.0721,-0.24279 0.14,-0.48384 0.20703,-0.72656 -1.82491,-0.71573 -3.65024,-1.43435 -5.47461,-2.15234 a 5.3544106,4.0830076 0 0 0 -0.87695,0.51757 z"
     style="stroke-width:0.679087"
     id="path270" />
  <path
     d="m 59.770505,82.302855 c 1.58534,-0.28827 3.23538,-0.65167 4.76562,-0.41015 6.44223,1.0199 12.85581,2.20767 19.27344,3.36718 a 5.3544106,4.0830076 0 0 1 1.05469,-1.06836 3.6869707,3.6869707 0 0 0 -2.29297,-1.64453 l -17.03711,-3.98828 a 3.6869707,3.6869707 0 0 0 -3.67578,1.23047 z"
     id="path269" />
  <path
     d="m 59.163085,82.421995 0.42383,0.0996 0.18164,-0.21875 c -0.14046,0.0255 -0.2826,0.0523 -0.42188,0.0762 -0.0626,0.0108 -0.1219,0.025 -0.18359,0.043 z"
     style="stroke-width:0.974776"
     id="path268" />
  <path
     d="m 79.325195,96.078245 a 5.3544106,4.0830076 0 0 1 3.3164,-0.8789 5.3544106,4.0830076 0 0 1 0.73828,0.041 3.6869707,3.6869707 0 0 0 0.0566,-0.21289 l 1.19335,-5.10547 a 5.3544106,4.0830076 0 0 1 -1.42578,-2.77734 5.3544106,4.0830076 0 0 1 0.60547,-1.88477 c -6.41763,-1.15951 -12.83121,-2.34728 -19.27344,-3.36718 -1.53024,-0.24152 -3.18028,0.12188 -4.76562,0.41015 l -0.18359,0.21875 -0.42774,-0.0996 c -0.61808,0.18072 -1.21545,0.70674 -2.23633,1.28321 2.00175,1.60471 3.45241,3.2389 5.26953,4.13671 5.67823,2.81581 11.40358,5.52795 17.13282,8.23633 z m -15.33399,-11.67383 a 1.8458141,1.8458141 0 0 1 0.5,0.0469 l 15.23242,3.56641 a 1.8458141,1.8458141 0 0 1 -0.84179,3.59179 l -15.23242,-3.5625 a 1.8458141,1.8458141 0 0 1 0.34179,-3.64258 z"
     id="path267" />
  <path
     d="m 79.325195,96.078245 c -5.72924,-2.70838 -11.45459,-5.42052 -17.13282,-8.23633 -1.81712,-0.89781 -3.26778,-2.532 -5.26953,-4.13671 1.02088,-0.57647 1.61825,-1.10249 2.23633,-1.28321 l -28.54687,-6.68164 a 3.6869707,3.6869707 0 0 1 -2.29297,-1.64648 l -0.13672,-0.22071 a 3.6869707,3.6869707 0 0 0 -2.89649,-1.73632 l -13.92968,-0.90039 -1.1875,5.07421 12.88476,5.375 a 3.6869707,3.6869707 0 0 0 3.36524,-0.27148 l 0.2207,-0.13867 a 3.6869707,3.6869707 0 0 1 2.78516,-0.45703 l 28.97461,6.78125 0.82031,3.45507 a 3.6869707,3.6869707 0 0 0 2.75,2.73438 l 15.0625,3.52734 v -0.3457 h 1.19922 a 5.3544106,4.0830076 0 0 1 1.09375,-0.89258 z"
     id="path266" />
  <path
     d="m 81.209955,96.970825 h 1.05469 a 3.6869707,3.6869707 0 0 0 1.11523,-1.73047 5.3544106,4.0830076 0 0 0 -0.73828,-0.041 5.3544106,4.0830076 0 0 0 -3.3164,0.8789 c 0.62834,0.29704 1.25637,0.59553 1.88476,0.89258 z"
     style="stroke-width:0.679087"
     id="path265" />
  <path
     d="m 81.209955,96.970825 c -0.62839,-0.29705 -1.25642,-0.59554 -1.88476,-0.89258 a 5.3544106,4.0830076 0 0 0 -1.09375,0.89258 z"
     style="stroke-width:0.679087"
     id="path264" />
  <path
     d="m 81.858395,97.277465 a 3.6869707,3.6869707 0 0 0 0.40625,-0.30664 h -1.05469 c 0.21637,0.10228 0.43207,0.20434 0.64844,0.30664 z"
     style="stroke-width:0.679087"
     id="path263" />
  <path
     d="m 81.858395,97.277465 c -0.21637,-0.1023 -0.43207,-0.20436 -0.64844,-0.30664 h -2.97851 a 5.3544106,4.0830076 0 0 0 -0.40625,0.5293 l 1.18164,0.27734 a 3.6869707,3.6869707 0 0 0 2.85156,-0.5 z"
     style="stroke-width:0.679087"
     id="path262" />
  <path
     d="m 84.686525,98.615355 h 3.23828 a 5.3544106,4.0830076 0 0 0 -0.8711,-1.64453 h -4.78906 a 3.6869707,3.6869707 0 0 1 -0.40625,0.30664 c 0.94239,0.44557 1.88604,0.89139 2.82813,1.33789 z"
     style="stroke-width:0.679087"
     id="path261" />
  <path
     d="m 84.686525,98.615355 c -0.94209,-0.4465 -1.88574,-0.89232 -2.82813,-1.33789 a 3.6869707,3.6869707 0 0 1 -2.85156,0.5 l -1.18164,-0.27734 a 5.3544106,4.0830076 0 0 0 -0.4668,1.11523 z"
     style="stroke-width:0.679087"
     id="path260" />
  <path
     d="m 87.858395,100.19934 a 5.3544106,4.0830076 0 0 0 0.13672,-0.914065 5.3544106,4.0830076 0 0 0 -0.0703,-0.66992 h -3.23828 c 0.72448,0.34338 1.44776,0.68687 2.17187,1.03125 0.31414,0.15101 0.61664,0.33675 1,0.552735 z"
     style="stroke-width:0.679087"
     id="path259" />
  <path
     d="m 87.813475,100.33801 c 0.0666,-0.0177 0.13608,-0.035 0.20312,-0.0527 -0.0532,-0.0293 -0.1079,-0.0576 -0.1582,-0.0859 a 5.3544106,4.0830076 0 0 1 -0.0449,0.13867 z"
     style="stroke-width:8.96559"
     id="path258" />
  <path
     d="m 83.219725,103.34387 a 5.3544106,4.0830076 0 0 0 4.59375,-3.00586 c -1.94277,0.51524 -3.71544,0.98823 -5.7461,1.52734 0.37482,0.50906 0.759,1.00225 1.15235,1.47852 z"
     style="stroke-width:0.679087"
     id="path257" />
  <path
     d="m 83.219725,103.34387 c -0.39335,-0.47627 -0.77753,-0.96946 -1.15235,-1.47852 2.03066,-0.53911 3.80333,-1.0121 5.7461,-1.52734 0.016,-0.046 0.031,-0.0923 0.0449,-0.13867 -0.38336,-0.215985 -0.68586,-0.401725 -1,-0.552735 -0.72411,-0.34438 -1.44739,-0.68787 -2.17187,-1.03125 l -7.65626,-0.082 c -0.0475,0.22145 0.25708,0.52755 0.25783,0.75195 0.002,2.253565 2.3982,4.079695 5.35351,4.080075 0.19308,7.9e-4 0.38607,-0.006 0.57813,-0.0215 z"
     style="stroke-width:0.679087"
     id="path256"
     sodipodi:nodetypes="sccccccccss" />
  <path
     d="M 167.69629,76.841915 98.149415,114.98646 c 0.0384,0.0227 0.0768,0.0457 0.11523,0.0684 L 167.78808,76.920095 c -0.0309,-0.026 -0.0609,-0.0521 -0.0918,-0.0781 z"
     style="stroke-width:0.974776"
     id="path255" />
  <path
     d="m 131.06347,47.105595 -3.58789,2.36718 h 5.11719 l 0.0215,-0.0137 0.008,0.0137 h 4.07031 v 6.16797 l 4.41993,6.69922 c 0.24148,0.36612 0.42886,0.75357 0.56445,1.15039 0.18017,0.52792 0.2688,1.07802 0.26953,1.6211 1.3e-4,0.13608 -0.005,0.27097 -0.0156,0.40625 h 12.89648 v 17.98632 h -21.57422 v -6.03125 h -5.91601 l -5.2461,3.45703 c -0.13397,0.0885 -0.2713,0.16804 -0.41015,0.24219 -0.051,0.0272 -0.10276,0.0509 -0.1543,0.0762 -0.10149,0.0498 -0.2032,0.0982 -0.30664,0.14063 -0.0453,0.0186 -0.0911,0.0336 -0.13672,0.0508 -0.0914,0.0344 -0.18288,0.0669 -0.27539,0.0957 -0.0716,0.0223 -0.1427,0.0435 -0.21484,0.0625 -0.0869,0.0229 -0.17416,0.0425 -0.26172,0.0605 -0.056,0.0115 -0.1118,0.0236 -0.16797,0.0332 -0.0975,0.0167 -0.19513,0.0282 -0.29297,0.0391 -0.0638,0.007 -0.12752,0.0149 -0.19141,0.0195 -0.10418,0.008 -0.20837,0.0107 -0.3125,0.0117 -0.0411,4.1e-4 -0.082,0.003 -0.12304,0.002 -0.30788,-0.004 -0.61308,-0.0379 -0.91407,-0.0977 -0.0466,-0.009 -0.0924,-0.0207 -0.13867,-0.0312 -0.10617,-0.0242 -0.21195,-0.0491 -0.3164,-0.0801 -0.0519,-0.0154 -0.10288,-0.0337 -0.1543,-0.0508 -0.0893,-0.0296 -0.17802,-0.0611 -0.26563,-0.0957 -0.0578,-0.0228 -0.11484,-0.0473 -0.17187,-0.0723 -0.0931,-0.0408 -0.1847,-0.0844 -0.27539,-0.13085 -0.0433,-0.0222 -0.0862,-0.0449 -0.12891,-0.0684 -0.0827,-0.0455 -0.16384,-0.0943 -0.24414,-0.14454 -0.0623,-0.0389 -0.12484,-0.0773 -0.18555,-0.11914 -0.0679,-0.0468 -0.13335,-0.0981 -0.19921,-0.14843 -0.0525,-0.0401 -0.10716,-0.0768 -0.15821,-0.11914 -0.11939,-0.099 -0.23469,-0.20338 -0.3457,-0.31446 -0.23705,-0.2372 -0.45463,-0.50216 -0.64649,-0.79297 l -1.33789,-2.02539 h -1.60351 v -2.43359 l -5.55469,-8.42188 0.80664,-0.53125 h -5.51172 v -4.26953 c -3.942565,-1.86715 -7.874015,-3.76127 -11.826165,-5.60547 0.17776,0.22934 0.31593,0.49017 0.4082,0.77149 0.0653,0.20196 0.10306,0.40924 0.11719,0.61719 0.002,0.0333 0.005,0.0663 0.006,0.0996 10e-4,0.0397 -0.001,0.0795 -0.002,0.11914 -6.8e-4,0.0392 -10e-4,0.0781 -0.004,0.11718 -0.002,0.0372 -0.006,0.0743 -0.01,0.11133 -0.005,0.0437 -0.0106,0.0875 -0.0176,0.13086 -0.006,0.0361 -0.0122,0.0716 -0.0195,0.10742 -0.0101,0.0494 -0.0222,0.0976 -0.0352,0.14649 -0.006,0.0242 -0.0124,0.0483 -0.0195,0.0723 -0.0172,0.0576 -0.0354,0.11536 -0.0566,0.17188 -0.008,0.0208 -0.0151,0.0419 -0.0234,0.0625 -0.0304,0.0748 -0.0638,0.14845 -0.10156,0.2207 l -2.92774,5.61328 h 9.48829 v 7.65039 h 6.494135 v 2.52735 H 91.678705 v -1.96289 h -9.52343 v -4.0586 c -8.60424,-2.67018 -17.21395,-5.32407 -25.87891,-7.78711 -5.789,-1.64639 -11.83912,-2.42395 -17.79883,-3.41406 -1.11404,-0.18845 -2.37327,0.4928 -3.56445,0.77734 0.62973,1.0015 1.10395,2.16049 1.92969,2.96094 1.03185,1.0015 2.30269,1.78115 3.55078,2.52344 13.12957,7.79072 27.46693,12.84096 41.58789,18.40234 1.25263,0.49394 2.50596,0.98898 3.75976,1.48243 a 5.3544106,4.0830076 0 0 1 1.35352,-0.45508 5.3544106,4.0830076 0 0 1 1.46289,-0.1543 5.3544106,4.0830076 0 0 1 5.35351,4.08008 5.3544106,4.0830076 0 0 1 -5.35351,4.08594 5.3544106,4.0830076 0 0 1 -3.92578,-1.3086 l -1.19336,5.10547 a 3.6869707,3.6869707 0 0 1 -0.0586,0.21289 5.3544106,4.0830076 0 0 1 0.72461,0.11719 5.3544106,4.0830076 0 0 1 1.35157,0.45312 5.3544106,4.0830076 0 0 1 1.59765,1.16016 h 2.21875 v 1.64453 h -1.34765 a 5.3544106,4.0830076 0 0 1 0.0703,0.66992 5.3544106,4.0830076 0 0 1 -0.13672,0.914065 c 0.0503,0.0283 0.10499,0.0566 0.1582,0.0859 -0.067,0.0178 -0.13648,0.035 -0.20312,0.0527 a 5.3544106,4.0830076 0 0 1 -4.59375,3.00586 c 4.26522,5.16428 9.57457,8.47853 14.92969,11.64259 L 167.69628,76.841805 c -1.99147,-1.67501 -3.95535,-3.38364 -5.89454,-5.12695 -6.92328,-6.22274 -13.85784,-12.44457 -20.60156,-18.86328 -4.94809,-4.71035 -9.63855,-9.69796 -14.36914,-14.63086 -1.76317,-1.83778 -3.51897,-3.68142 -5.27344,-5.52734 z"
     style="stroke-width:0.974776"
     id="path253" />
  <path
     d="m 121.55371,32.691525 c -4.66704,-4.91032 -9.31329,-9.84034 -13.99609,-14.73632 -0.66008,-0.69169 -1.54999,-1.17209 -2.334,-1.75 -0.22127,0.11387 -0.4408,0.22216 -0.66209,0.33593 0.1707,1.07359 0.13764,2.22817 0.54101,3.20313 2.99819,7.26469 5.60894,14.78258 10.67969,20.94336 2.43019,2.95169 4.85656,5.93693 7.41406,8.78515 h 4.2793 l 3.58788,-2.36718 z"
     id="path252" />
  <path
     d="m 102.95605,4.4962158 -12.634765,8.3339892 4.43945,2.3457 -2.86328,3.67969 4.92774,3.08789 -2.86328,3.67968 4.93164,3.0879 -2.86914,3.68164 4.933585,3.09179 -2.865225,3.67578 4.929675,3.08985 -1.13476,1.45703 c 3.40795,2.35296 6.8281,4.69083 10.26953,6.99414 v -1.22852 h 11.03906 c -2.5575,-2.84822 -4.98386,-5.83346 -7.41406,-8.78515 -5.07075,-6.16078 -7.6815,-13.67867 -10.67969,-20.94336 -0.40337,-0.97496 -0.37031,-2.12954 -0.54101,-3.20313 0.22129,-0.11376 0.44082,-0.22206 0.6621,-0.33593 0.78401,0.57791 1.67391,1.05831 2.33399,1.75 4.6828,4.89598 9.32906,9.826 13.99609,14.73632 z"
     id="path251" />
</svg>
