<?xml version="1.0" encoding="UTF-8" standalone="no"?>
<!-- Created with Inkscape (http://www.inkscape.org/) -->

<svg
   width="1000"
   height="500"
   viewBox="0 0 1000 500"
   version="1.1"
   id="svg1"
   xmlns="http://www.w3.org/2000/svg"
   xmlns:svg="http://www.w3.org/2000/svg">
  <defs
     id="defs1" />
  <g
     id="layer1"
     transform="matrix(0.99732343,0,0,0.99732343,0.95342959,-0.70326128)">
    <g
       id="g1"
       transform="matrix(2.573519,0,0,2.573519,-89.291653,-312.42189)">
      <g
         id="layer2"
         style="display:inline">
        <g
           id="g401"
           transform="matrix(0.01827893,-0.03501435,0.03501435,0.01827893,39.501605,141.88306)">
	<path
   class="st0"
   d="M 423.29,90.281 C 398.149,53.719 351.306,0 280.071,0 c -39.609,0 -86.875,0 -86.875,0 -3.578,0 -6.484,2.906 -6.484,6.469 v 3.063 c 0,3.563 -2.891,6.469 -6.469,6.469 H 159.68 c -3.578,0 -6.469,-2.906 -6.469,-6.469 V 6.469 C 153.211,2.906 150.305,0 146.727,0 H 96.431 C 89.29,0 83.478,5.813 83.478,12.969 v 64.344 c 0,7.172 5.813,12.969 12.953,12.969 h 50.297 c 3.578,0 6.484,-2.906 6.484,-6.469 v -3.047 c 0,-3.578 2.891,-6.484 6.469,-6.484 h 20.563 c 3.578,0 6.469,2.906 6.469,6.484 v 9.516 52.578 h 91.438 v -26.656 c 0,-14.313 11.609,-25.922 25.906,-25.922 0,0 6.641,0 7.234,0 48,0 73.156,10.281 97.156,20.563 15.281,6.561 27.421,-6.845 14.843,-20.564 z"
   id="path397"
   style="fill:#000000" />

	<path
   class="st0"
   d="m 266.056,512 c 5.234,0 10.234,-2.109 13.906,-5.844 3.656,-3.75 5.641,-8.813 5.531,-14.031 l -7.344,-321.844 h -91.438 l -7.328,321.844 c -0.125,5.219 1.875,10.281 5.531,14.031 3.656,3.734 8.672,5.844 13.891,5.844 z"
   id="path399"
   style="fill:#000000" />

</g>
        <g
           style="fill:#000000"
           id="g461"
           transform="matrix(0.94083273,-0.58399528,0.58399528,0.94083273,37.637018,146.19728)">
          <path
             d="M 0,1 1,0 4.081,2.2 A 1,1 0 0 1 4.5,3.015 v 0.07 A 1,1 0 0 0 4.793,3.793 L 10.5,9.5 11.414,9.195 a 1,1 0 0 1 1.023,0.242 l 3.356,3.356 a 1,1 0 0 1 0,1.414 l -1.586,1.586 a 1,1 0 0 1 -1.414,0 L 9.437,12.437 A 1,1 0 0 1 9.195,11.414 L 9.5,10.5 3.793,4.793 A 1,1 0 0 0 3.086,4.5 H 3.015 A 1,1 0 0 1 2.201,4.081 Z m 11.354,9.646 a 0.5006316,0.5006316 0 0 0 -0.708,0.708 l 3,3 a 0.5006316,0.5006316 0 0 0 0.708,-0.708 z"
             id="path452" />
        </g>
        <g
           id="g636"
           transform="matrix(-0.04166864,-0.00854539,-0.00854539,0.04166864,82.607084,128.9564)">
	<path
   class="st0"
   d="m 50.448,345.976 c -13.915,13.916 -13.915,36.484 0,50.4 L 155.63,501.548 c 13.914,13.932 36.484,13.932 50.4,0.017 L 283.075,424.511 127.494,268.93 Z m 128.484,118.66 c -3.121,3.12 -8.209,3.137 -11.33,0.008 l -80.24,-80.24 c -3.129,-3.12 -3.12,-8.21 0,-11.338 l 33.504,-33.496 91.57,91.562 z"
   id="path632"
   style="fill:#000000" />

	<polygon
   class="st0"
   points="357,290.552 342.401,261.042 380.887,246.665 366.288,217.163 404.782,202.786 390.174,173.26 428.661,158.891 414.078,129.38 452.548,115.004 437.965,85.493 471.988,75.571 396.416,0 141.566,254.858 275.516,388.809 309.193,378.369 294.619,348.841 333.105,334.456 318.514,304.929 "
   id="polygon634"
   style="fill:#000000" />

</g>
        <rect
           style="fill:#000000;stroke-width:0.264583"
           id="rect699"
           width="7.3692088"
           height="8.4096546"
           x="68.85231"
           y="139.07687" />
        <rect
           style="fill:#000000;stroke-width:0.264583"
           id="rect759"
           width="3.6762915"
           height="0.49399009"
           x="58.302654"
           y="153.34235" />
        <rect
           style="fill:#000000;stroke-width:0.264583"
           id="rect753"
           width="4.4167218"
           height="2.8590093"
           x="75.807709"
           y="144.34819" />
        <rect
           style="fill:#000000;stroke-width:0.264583"
           id="rect755"
           width="4.4204173"
           height="2.4673641"
           x="59.841522"
           y="143.61182" />
        <rect
           style="fill:#000000;stroke-width:0.264583"
           id="rect757"
           width="3.5576894"
           height="2.7126966"
           x="65.770882"
           y="141.35358" />
      </g>
      <ellipse
         style="fill:#1a1a1a;stroke-width:0.264583"
         id="path1028-3"
         cx="61.764648"
         cy="150.39172"
         rx="1.6081464"
         ry="1.2262926" />
      <path
         id="path175"
         style="fill:#000000;stroke-width:0.379788"
         d="m 51.919312,128.27847 c 0.09001,0.37485 0.08998,0.59462 0.187585,0.75603 1.172787,1.94642 2.429531,3.80879 4.129464,5.37693 1.690818,1.56018 3.548426,2.87308 5.423441,4.17804 1.684361,1.17126 3.344036,2.37839 5.04207,3.53105 0.866297,0.58905 1.785239,1.10007 2.690275,1.62988 1.430282,0.83819 2.863761,1.67337 4.306197,2.49029 0.41359,0.23395 0.86466,0.4029 1.286226,0.62735 -0.995046,-0.39042 -2.003744,-0.7466 -2.98018,-1.18184 -1.681323,-0.75008 -3.338794,-1.54816 -5.007963,-2.32596 -2.660417,-1.23811 -5.288502,-2.5554 -7.989176,-3.6959 -3.731421,-1.57271 -7.515458,-3.01977 -11.285616,-4.49791 -0.441694,-0.17356 -0.93699,-0.21918 -1.414384,-0.27957 -0.170525,-0.0216 -0.356381,0.0855 -0.536401,0.13332 0.05735,0.19824 0.06013,0.44362 0.182417,0.58756 0.280284,0.33155 0.604306,0.63084 0.935861,0.91416 2.44052,2.0858 5.190859,3.65025 8.100797,4.99091 2.420391,1.11581 4.754533,2.41393 7.1453,3.59203 0.821482,0.40448 1.70422,0.68307 2.557984,1.01957 -0.01557,0.0619 -0.03252,0.12259 -0.04961,0.18449 -0.169006,-0.0403 -0.340947,-0.07 -0.505395,-0.11937 -4.020819,-1.23051 -8.024666,-2.51786 -12.069031,-3.66748 -1.738671,-0.49448 -3.555984,-0.72841 -5.345927,-1.02578 -0.334593,-0.0566 -0.712974,0.14812 -1.070735,0.23358 0.189135,0.30079 0.331807,0.64894 0.579809,0.88935 0.309907,0.30079 0.691234,0.53464 1.066085,0.75758 3.943342,2.33987 8.249614,3.857 12.49071,5.52731 0.923645,0.36421 1.84869,0.72819 2.773475,1.09089 -0.02013,0.0729 -0.04036,0.14567 -0.06201,0.21859 -0.368774,-0.0665 -0.736067,-0.13198 -1.104842,-0.19844 -2.281008,-0.406 -4.556973,-0.83864 -6.845577,-1.20096 -0.500561,-0.079 -1.044328,0.0576 -1.558562,0.14573 -0.207364,0.0357 -0.390488,0.20778 -0.72812,0.39843 0.601205,0.48196 1.036577,0.97265 1.582332,1.2423 2.453053,1.21646 4.935152,2.36931 7.408333,3.54552 0.106721,0.0513 0.209403,0.11627 0.347266,0.19223 -0.607282,0.16103 -1.155625,0.30691 -1.786454,0.47439 1.487631,2.02048 3.481926,3.14582 5.440494,4.3 0.464861,0.2742 1.063231,0.30981 1.56683,0.53123 0.344088,0.15192 0.628978,0.43511 0.941544,0.66146 -0.560947,0.72806 -0.455445,1.24574 0.241846,1.86707 1.43484,1.27989 3.118028,2.14342 4.788338,3.05149 0.567403,0.30839 0.906178,1.02554 1.374077,1.53066 0.420046,0.45384 0.86199,0.89121 1.323433,1.30328 0.385865,0.34561 0.815214,0.64439 1.225765,0.96531 -0.977575,1.15456 -0.503995,1.86907 0.307992,2.5337 0.559428,0.45727 1.102119,0.93736 1.687752,1.35702 0.841232,0.60425 1.863738,0.80481 2.823083,0.66353 0.08052,-0.0122 0.156556,-0.0187 0.230994,-0.0233 0.505119,1.21152 1.552443,2.17045 2.810681,2.55024 0.663111,0.73147 1.453766,1.35749 1.799374,2.34456 0.159511,0.45726 0.250748,0.86799 0.180867,1.37614 -0.0714,0.52069 0.237338,1.08936 0.187586,1.61954 -0.09457,1.01328 0.724183,1.01136 1.282092,1.31671 0.153434,0.0836 0.314424,0.15521 0.476973,0.22015 0.664629,0.26965 0.959026,0.73607 0.746725,1.4459 -0.12685,0.42156 -0.107136,0.75916 0.300757,1.02578 0.571581,0.37333 1.125347,0.77785 1.690852,1.1622 0.361178,0.24496 0.718853,0.49464 1.098641,0.70694 0.238507,0.13331 0.511467,0.26644 0.77618,0.28163 0.470937,0.0281 0.64466,0.26661 0.575159,0.68058 -0.09457,0.56398 0.0832,0.96677 0.461471,1.40353 0.238507,0.27572 0.303452,0.78745 0.283703,1.18546 -0.06836,1.3418 0.294689,1.83186 1.593185,2.19418 0.598166,0.16711 1.169619,0.4512 1.386478,1.16065 0.210783,0.69273 0.567183,1.21119 1.413351,1.33842 0.75464,0.11318 1.129528,0.75779 1.104842,1.48622 -0.02773,0.8306 0.538849,1.28927 0.992699,1.7849 0.40447,0.44321 0.60304,0.77626 0.37517,1.40405 -0.31295,0.8644 0.18917,1.66243 0.47439,2.45618 0.0372,0.10369 0.37641,0.0992 0.6134,0.15503 -0.33307,0.59209 -0.12344,0.91265 0.51005,1.17926 0.63386,0.26661 1.18683,0.66294 1.34824,1.47949 0.21837,1.10632 0.94983,1.75884 2.11046,1.88568 0.20736,0.0232 0.40278,0.15066 0.67851,0.2589 -0.33155,0.13027 -0.58092,0.22898 -0.83044,0.32659 0.006,0.0604 0.0125,0.12113 0.0186,0.1819 0.28029,-0.009 0.56664,-0.0588 0.83819,-0.017 0.2818,0.0433 0.54848,0.17777 0.82269,0.27233 -0.11622,0.21079 -0.21812,0.43218 -0.35295,0.62891 -0.11013,0.16103 -0.27291,0.28693 -0.38913,0.44493 -0.32396,0.44017 -0.0646,1.12654 0.46664,1.23972 0.1052,0.0232 0.21801,0.009 0.32815,0.0139 1.43028,0.0649 1.39502,0.0632 1.31413,1.51515 -0.0851,1.51688 0.45857,2.88101 1.25005,4.13773 0.13482,0.21382 0.53907,0.24156 0.78859,0.40411 0.23395,0.15344 0.48228,0.33846 0.62166,0.57051 0.22294,0.37182 0.38594,0.78383 0.5333,1.19476 0.19217,0.53626 0.32827,0.99165 1.07797,1.08469 0.2913,0.0357 0.52253,0.76538 0.73484,1.20251 0.37485,0.77477 0.7155,1.56688 1.07022,2.35076 0.0961,0.21079 0.23696,0.41172 0.28215,0.632 0.17508,0.87997 0.59024,1.30457 1.44591,1.39268 0.50208,0.0513 0.86472,0.19071 1.27072,0.60772 0.49296,0.50511 1.30602,0.69587 1.97559,1.03198 0.37181,0.1861 0.74247,0.38088 1.10175,0.59014 0.80439,0.46676 1.59403,0.95644 2.4045,1.4118 0.575,0.32244 0.81388,0.86758 0.69918,1.60817 -0.09,0.58107 -0.35962,1.1048 -0.22479,1.77095 0.0714,0.34713 -0.5135,0.82793 -0.88987,1.37976 -0.14735,-0.79527 -0.56505,-1.14232 -1.12448,-0.92242 -0.99808,0.39346 -2.06112,0.2571 -3.06338,0.52865 -0.89706,0.24307 -1.79321,0.49143 -2.69027,0.73639 -0.0418,0.0121 -0.0872,0.0448 -0.12557,0.0372 -1.59018,-0.29737 -3.08504,0.3191 -4.6266,0.48317 -1.82527,0.19369 -3.6431,0.45708 -5.46685,0.67128 -2.20049,0.25711 -4.4071,0.46776 -6.601141,0.75602 -0.96846,-0.38777 -2.121164,0.19502 -2.491837,1.13689 -0.409032,1.03986 0.13505,2.11687 1.114144,2.5616 0.32244,0.14584 0.646356,0.29289 0.968416,0.43873 0.30535,1.67031 1.720098,2.98361 3.348628,3.2768 -0.22293,0.14584 -0.43728,0.30121 -0.63097,0.47439 -0.31637,0.28218 -0.77759,0.66342 -0.43046,1.17461 0.32395,0.4774 0.71567,0.97927 1.43764,0.65835 0.28371,0.33155 0.0432,1.27261 0.70021,0.88522 1.04442,0.51879 1.92175,0.95582 2.83135,1.40663 0.0915,0.86934 0.41523,1.15885 1.75855,1.41749 0.49258,0.0946 0.99964,0.12541 1.50172,0.15503 0.49752,0.0292 0.99793,0.0218 1.60559,0.031 -0.15191,0.20774 -0.25931,0.43075 -0.43098,0.5762 -0.8568,0.72388 -0.87993,1.42872 -0.0543,2.16627 0.19825,0.1766 0.40146,0.35664 0.56895,0.56172 0.58259,0.71249 0.5782,0.71749 1.30018,0.70952 0.10862,0.23699 0.14885,0.54203 0.30076,0.61495 0.59817,0.28977 1.16211,0.77485 1.91978,0.48318 0.0961,-0.0372 0.29146,0.002 0.34881,0.076 0.26661,0.34067 0.44441,0.7747 0.76533,1.04283 0.28674,0.23851 0.71297,0.3239 1.08934,0.43822 0.15837,0.0482 0.38142,0.0554 0.51625,-0.0202 0.81351,-0.46942 1.71211,-0.06 2.54765,-0.26923 0.0509,-0.0125 0.1163,0.0353 0.21239,0.0661 -0.14736,0.14888 -0.27438,0.27628 -0.53795,0.53795 1.07556,0.1937 1.97541,0.55948 2.9564,0.19223 0.17508,-0.065 0.38459,-0.17971 0.54106,-0.13642 0.60424,0.16901 1.19301,0.39241 1.7756,0.59066 -0.1071,0.0684 -0.27832,0.17519 -0.55139,0.34571 0.74059,0.5469 1.50887,0.72011 2.32389,0.78239 0.29434,0.0217 0.5967,0.0372 0.8785,0.11472 0.72692,0.19977 1.4967,-0.0514 2.01435,-0.76843 1.7155,-2.38165 3.48185,-4.73061 5.07772,-7.18974 0.66957,-1.03037 1.50789,-1.55877 2.60966,-1.71411 1.83589,-0.25863 3.5486,-0.85365 5.22346,-1.61437 0.33954,-0.15495 0.67859,-0.24501 1.13585,0.0139 0.49601,0.28181 1.17459,0.24611 1.7663,0.34675 -0.20775,0.6388 0.28054,1.08744 0.57981,1.60662 0.087,0.15039 0.22794,0.37666 0.17363,0.48679 -0.37182,0.76376 0.11298,1.41017 0.26148,2.09341 0.0311,0.14432 0.26637,0.26151 0.42892,0.3576 0.37675,0.22179 0.77046,0.41266 1.14721,0.63407 0.54538,0.32244 0.838,0.77327 0.8661,1.44436 0.0106,0.24952 0.28637,0.63034 0.51728,0.70022 0.70033,0.21268 0.95506,0.72346 1.18597,1.32808 0.0881,0.23053 0.29856,0.50001 0.51884,0.58394 1.67335,0.63995 3.35786,1.25511 5.04982,1.84227 0.50967,0.17698 1.06025,0.23089 1.58853,0.35812 0.17888,0.0429 0.46757,0.11152 0.49454,0.22014 0.16976,0.71439 0.79942,0.75592 1.31517,0.92759 0.65438,0.21838 1.32342,0.35536 1.39785,1.24179 0.011,0.13444 0.30283,0.29117 0.49196,0.35915 0.63653,0.23092 1.29346,0.40306 1.92391,0.64802 0.19369,0.0741 0.33812,0.29756 0.48472,0.46922 0.26053,0.30725 0.44979,0.71419 0.76843,0.92346 1.33306,0.87275 2.76738,1.47714 4.4111,1.35599 0.21572,-0.0156 0.42671,-0.0872 0.69143,-0.14418 0.014,0.22142 0.0252,0.42635 0.0388,0.64131 0.18914,0.0311 0.37209,0.0616 0.59996,0.0992 -0.0577,0.19977 -0.10253,0.35959 -0.14469,0.50695 0.21154,0.41966 1.0013,0.38104 1.91203,-0.10129 -0.13292,0.42005 -0.1436,0.73587 0.42685,0.67852 0.64905,-0.0665 0.971,0.18449 0.971,0.84646 0,0.7235 0.56159,0.99945 1.01544,1.20871 0.27876,0.12875 0.80723,-0.12547 1.1498,-0.32866 0.34561,-0.20432 0.60061,-0.55896 0.94774,-0.89659 0.20774,0.84009 -0.48155,1.26591 -0.86248,1.85002 0.25218,0.16711 0.43179,0.35929 0.64751,0.41702 0.54386,0.14394 1.11596,0.19521 1.18546,0.95137 0.005,0.0513 0.54396,0.15785 0.76119,0.0667 0.74857,-0.31484 1.38772,-0.26659 1.65623,0.49868 0.39156,1.11848 1.56138,1.48948 2.05776,2.46858 0.0957,0.19065 0.43239,0.26143 0.69711,0.41031 -0.0809,0.0589 -0.17033,0.12724 -0.26148,0.18914 -0.37029,0.24801 -0.29898,0.47913 0.0713,0.59686 1.02581,0.32396 2.02499,0.79883 3.16208,0.52348 0.14622,-0.0357 0.45922,0.16257 0.52607,0.32246 0.4303,1.0353 1.1711,1.69355 2.22312,2.05776 0.1766,0.0604 0.34118,0.32113 0.40308,0.5209 0.21876,0.71135 0.33822,1.45652 0.59686,2.15077 0.15647,0.41701 0.49429,0.76697 0.76584,1.13688 0.20927,0.28674 0.38849,0.62493 0.66611,0.82166 0.72844,0.51575 1.5835,0.42397 2.40916,0.33434 0.33991,-0.0357 0.66158,-0.22265 1.00149,-0.25683 0.22256,-0.0236 0.50659,0.041 0.68471,0.17312 0.59779,0.44284 1.16277,0.93317 1.73891,1.40715 0.0482,0.0403 0.11408,0.0867 0.12661,0.14056 0.31598,1.34977 1.71405,1.66436 2.46755,2.59105 0.31903,0.39194 0.52951,0.871 0.82992,1.28003 0.13065,0.1766 0.37534,0.2629 0.55346,0.40721 0.19066,0.15458 0.4524,0.29749 0.5333,0.50333 0.61032,1.59777 1.47145,3.03575 2.74867,4.17132 0.66008,0.58753 1.32485,1.17471 2.27014,1.42575 0.46372,0.1223 0.78145,0.82467 1.14567,1.28003 0.25665,0.32205 0.50443,0.65197 0.75241,0.98185 h 1.5198 v -38.99762 c -0.20558,-0.1849 -0.41418,-0.36648 -0.6258,-0.54364 -1.00492,-0.84161 -2.2046,-1.4672 -3.36827,-2.09651 -1.26773,-0.68514 -2.59868,-1.2509 -3.89072,-1.89084 -1.56967,-0.77629 -3.13629,-1.55839 -4.68963,-2.36885 -1.73943,-0.90846 -3.45903,-1.85335 -5.19504,-2.77244 -1.60537,-0.85035 -3.22777,-1.66739 -4.82554,-2.53369 -2.13175,-1.15569 -4.25305,-2.33492 -6.36809,-3.52175 -1.8321,-1.02733 -3.6625,-2.06135 -5.4684,-3.13159 -0.7892,-0.4679 -1.51369,-1.04298 -2.27479,-1.56063 -0.67868,-0.46182 -1.36646,-0.91064 -2.05311,-1.36943 0.4941,-0.61335 0.97168,-1.10468 1.32602,-1.67018 0.53626,-0.85681 0.72533,-1.78946 0.18603,-2.73627 -0.0638,-0.11166 -0.1609,-0.24966 -0.26458,-0.32866 -1.69196,-2.79828 -4.13113,-4.82204 -7.1174,-6.19497 -1.70449,-0.78389 -3.48164,-1.40553 -5.30045,-1.86242 -0.72843,-0.42764 -1.47968,-0.86643 -2.24534,-1.28002 -1.31596,-0.71248 -2.54431,-1.497 -3.4463,-2.74764 -0.35616,-0.49398 -0.94025,-0.82269 -1.51929,-1.31051 v -5.2e-4 -5.2e-4 c 0.001,-0.0178 -0.0248,-0.22654 -0.14159,-0.30902 -0.53474,-0.38092 -1.08959,-0.73639 -1.66915,-1.11466 -0.15153,-0.30838 -0.39176,-0.48793 -0.69711,-0.64441 -0.15495,-0.079 -0.31017,-0.15924 -0.46664,-0.23823 -0.087,-0.0805 -0.17929,-0.16103 -0.27234,-0.24649 -0.66805,-0.60272 -1.22704,-1.33135 -1.8066,-2.02675 -1.24571,-1.4937 -2.54021,-2.95187 -3.6959,-4.51394 -1.60081,-2.16138 -3.14865,-4.36633 -4.61729,-6.61923 -2.18644,-3.35467 -4.38505,-6.71012 -6.39186,-10.17303 -2.16783,-3.74358 -4.08778,-7.63111 -6.18877,-11.41532 -0.50663,-0.91263 -1.27527,-1.68916 -1.97559,-2.48254 -0.75313,-0.85072 -1.53259,-1.68603 -2.36471,-2.45928 -1.31406,-1.22101 -2.62366,-2.46071 -4.038,-3.55792 -3.18908,-2.47318 -6.08482,-5.28511 -9.20099,-7.8388 -1.96198,-1.60689 -3.87055,-3.29452 -5.94382,-4.74493 -3.480377,-2.43444 -7.058125,-4.72613 -10.62054,-7.04246 -3.181107,-2.06871 -6.186241,-4.36165 -9.006169,-6.89674 -2.079341,-1.86894 -4.161807,-3.73749 -6.187219,-5.66529 -1.486111,-1.41471 -2.894711,-2.91301 -4.315499,-4.39456 -1.93844,-2.02048 -3.853392,-4.06294 -5.788794,-6.08645 -0.198249,-0.20774 -0.464747,-0.35198 -0.700216,-0.52555 -0.06646,0.0342 -0.133524,0.0666 -0.199987,0.10077 0.05127,0.32244 0.04163,0.6694 0.16278,0.96222 0.900478,2.18188 1.684605,4.43972 3.207557,6.29005 1.233552,1.49826 2.464899,3.02459 3.886067,4.3341 2.144284,1.97414 4.452181,3.77151 6.689514,5.64462 0.123811,0.10369 0.232234,0.22317 0.280087,0.44648 -0.165968,-0.0649 -0.347248,-0.10732 -0.497644,-0.19998 -3.072487,-1.90616 -6.165403,-3.78083 -9.20409,-5.74281 -2.502425,-1.61448 -4.953543,-3.31116 -7.397481,-5.01261 -1.615999,-1.12493 -3.146949,-2.37397 -4.77852,-3.47421 -1.902739,-1.28293 -3.869692,-2.47143 -5.818766,-3.68143 -0.301932,-0.18762 -0.669611,-0.27272 -1.180806,-0.47439 z M 171.03349,234.66475 c 0.0689,-0.004 0.14044,-0.003 0.21342,0.001 0.0834,0.005 0.16921,0.0151 0.2558,0.031 -0.19787,0.42005 -0.38839,0.82129 -0.66146,1.39629 -0.2818,-0.36725 -0.6218,-0.61025 -0.6351,-0.8723 -0.018,-0.31927 0.3451,-0.5312 0.82734,-0.55603 z" />
      <rect
         style="fill:#1a1a1a;stroke-width:0.264583"
         id="rect918"
         width="6.4795094"
         height="5.4024854"
         x="75.188019"
         y="144.24001" />
      <rect
         style="fill:#1a1a1a;stroke-width:0.264583"
         id="rect972"
         width="3.5100267"
         height="0.75964367"
         x="62.702381"
         y="145.90961" />
      <ellipse
         style="fill:#1a1a1a;stroke-width:0.264583"
         id="path1028"
         cx="59.987656"
         cy="154.03734"
         rx="1.6081464"
         ry="1.2262926" />
      <path
         style="font-size:51.7123px;font-family:'Adwaita Sans';-inkscape-font-specification:'Adwaita Sans';fill:#1a1a1a;stroke-width:0.53867"
         d="m 225.17386,297.21594 q -3.68652,0 -5.25203,-1.36351 -1.56551,-1.38875 -1.56551,-4.64602 v -31.61319 h 4.29253 v 31.15868 q 0,1.69176 0.53025,2.24727 0.5555,0.53025 2.19676,0.53025 0.202,0 0.50501,0 0.32825,0 0.53025,0 v 3.68652 q -0.303,0 -0.63125,0 -0.30301,0 -0.60601,0 z m 15.55409,0.60601 q -3.91377,0 -6.69129,-1.79276 -2.75226,-1.79276 -4.21677,-4.92378 -1.46451,-3.15627 -1.46451,-7.17104 0,-4.06528 1.54026,-7.22155 1.54026,-3.15626 4.26727,-4.94902 2.72702,-1.81802 6.26204,-1.81802 2.77752,0 4.99953,1.01001 2.24726,1.01001 3.83802,2.87852 1.59076,1.86851 2.42402,4.44402 0.8585,2.55027 0.8585,5.65604 v 1.18675 h -21.91713 v -3.68652 h 19.51837 l -1.84326,1.28776 q 0,-2.72702 -0.98476,-4.72178 -0.9595,-2.02001 -2.72701,-3.10577 -1.76752,-1.111 -4.16628,-1.111 -2.37351,0 -4.14102,1.111 -1.74226,1.08576 -2.72702,3.10577 -0.9595,1.99476 -0.9595,4.72178 v 1.81801 q 0,2.75226 0.93425,4.87328 0.95951,2.12101 2.77752,3.33302 1.81801,1.18675 4.41877,1.18675 1.89376,0 3.33302,-0.58075 1.43926,-0.606 2.37352,-1.66651 0.9595,-1.06051 1.3635,-2.44926 h 4.29253 q -0.505,2.55026 -2.09576,4.49452 -1.59076,1.91901 -3.98953,3.00477 -2.37351,1.08576 -5.27728,1.08576 z m 16.7156,9.94855 v -37.21871 h 4.19152 v 3.93902 h 0.0505 q 0.85851,-1.48976 2.17152,-2.47451 1.313,-0.98476 2.92901,-1.46451 1.61601,-0.505 3.33302,-0.505 3.48452,0 6.08529,1.74226 2.60076,1.74226 4.04002,4.87327 1.43926,3.10577 1.43926,7.22155 0,4.09052 -1.43926,7.22154 -1.43926,3.10576 -4.04002,4.87328 -2.60077,1.74226 -6.08529,1.74226 -1.71701,0 -3.25727,-0.50501 -1.54025,-0.47975 -2.82801,-1.48976 -1.28776,-1.01 -2.24726,-2.55026 h -0.0505 v 14.59458 z m 12.01907,-13.91283 q 2.32301,0 4.09052,-1.13625 1.76751,-1.13626 2.77752,-3.35827 1.01001,-2.22202 1.01001,-5.47928 0,-3.28252 -1.01001,-5.50454 -1.01001,-2.22201 -2.77752,-3.35827 -1.76751,-1.13625 -4.09052,-1.13625 -2.47451,0 -4.29253,1.23725 -1.81801,1.23726 -2.80276,3.48452 -0.98476,2.24727 -0.98476,5.27729 0,3.00476 0.98476,5.25203 0.98475,2.24726 2.80276,3.48452 1.81802,1.23725 4.29253,1.23725 z m 28.86092,-23.30588 v 3.68652 h -14.44309 v -3.68652 z m -9.69606,-7.27204 h 4.29253 v 27.47215 q 0,1.54026 0.63125,2.17152 0.6565,0.606 2.29776,0.606 0.58076,0 1.23726,0 0.68175,0 1.23726,0 v 3.68652 q -0.65651,0 -1.43926,0 -0.78276,0 -1.43926,0 -3.43402,0 -5.12578,-1.48976 -1.69176,-1.51501 -1.69176,-4.51977 z m 24.64414,34.5422 q -3.68652,0 -6.48929,-1.76751 -2.77751,-1.79276 -4.34302,-4.92378 -1.54026,-3.13102 -1.54026,-7.19629 0,-4.09053 1.54026,-7.2468 1.56551,-3.15626 4.34302,-4.94903 2.80277,-1.79276 6.48929,-1.79276 3.71177,0 6.48929,1.79276 2.77752,1.79277 4.31777,4.94903 1.56551,3.15627 1.56551,7.2468 0,4.06527 -1.56551,7.19629 -1.54025,3.13102 -4.31777,4.92378 -2.77752,1.76751 -6.48929,1.76751 z m 0,-3.88853 q 2.52502,0 4.31778,-1.23725 1.79276,-1.23726 2.75226,-3.48452 0.95951,-2.27252 0.95951,-5.27728 0,-3.05527 -0.95951,-5.30254 -0.9595,-2.27251 -2.75226,-3.53502 -1.79276,-1.2625 -4.31778,-1.2625 -2.49976,0 -4.31777,1.2625 -1.79276,1.23726 -2.75227,3.50977 -0.9595,2.27252 -0.9595,5.32779 0,3.03001 0.9595,5.27728 0.95951,2.24726 2.75227,3.48452 1.79276,1.23725 4.31777,1.23725 z m 27.57316,3.78753 q -3.45927,0 -6.08528,-1.74226 -2.60077,-1.76752 -4.04003,-4.87328 -1.43926,-3.13102 -1.43926,-7.22154 0,-4.11578 1.43926,-7.22155 1.43926,-3.13101 4.04003,-4.87327 2.62601,-1.74226 6.08528,-1.74226 1.74226,0 3.30777,0.505 1.59076,0.47975 2.87852,1.46451 1.28775,0.98475 2.14626,2.47451 h 0.0505 v -14.89759 h 4.29252 v 37.62272 h -4.19152 v -4.04002 h -0.0505 q -0.95951,1.54026 -2.27251,2.55026 -1.31301,1.01001 -2.87852,1.48976 -1.54026,0.50501 -3.28252,0.50501 z m 0.65651,-3.86328 q 2.47451,0 4.29252,-1.23725 1.81801,-1.23726 2.80277,-3.48452 0.98475,-2.24727 0.98475,-5.25203 0,-3.03002 -0.98475,-5.27729 -0.98476,-2.24726 -2.80277,-3.48452 -1.81801,-1.23725 -4.29252,-1.23725 -2.29777,0 -4.09053,1.13625 -1.76751,1.13626 -2.77751,3.35827 -1.01001,2.22202 -1.01001,5.50454 0,3.25726 1.01001,5.47928 1.01,2.22201 2.77751,3.35827 1.79276,1.13625 4.09053,1.13625 z m 29.39117,3.96428 q -3.68653,0 -6.48929,-1.76751 -2.77752,-1.79276 -4.34303,-4.92378 -1.54026,-3.13102 -1.54026,-7.19629 0,-4.09053 1.54026,-7.2468 1.56551,-3.15626 4.34303,-4.94903 2.80276,-1.79276 6.48929,-1.79276 3.71177,0 6.48928,1.79276 2.77752,1.79277 4.31778,4.94903 1.56551,3.15627 1.56551,7.2468 0,4.06527 -1.56551,7.19629 -1.54026,3.13102 -4.31778,4.92378 -2.77751,1.76751 -6.48928,1.76751 z m 0,-3.88853 q 2.52501,0 4.31777,-1.23725 1.79276,-1.23726 2.75227,-3.48452 0.9595,-2.27252 0.9595,-5.27728 0,-3.05527 -0.9595,-5.30254 -0.95951,-2.27251 -2.75227,-3.53502 -1.79276,-1.2625 -4.31777,-1.2625 -2.49977,0 -4.31778,1.2625 -1.79276,1.23726 -2.75227,3.50977 -0.9595,2.27252 -0.9595,5.32779 0,3.03001 0.9595,5.27728 0.95951,2.24726 2.75227,3.48452 1.79276,1.23725 4.31778,1.23725 z m 21.66462,-12.32207 v 15.60459 h -4.29252 v -26.66415 h 4.19152 v 6.46404 h -1.21201 q 1.31301,-3.61078 3.63603,-5.27729 2.34826,-1.69175 5.50453,-1.69175 2.70176,0 4.92378,1.18675 2.22201,1.16151 3.53502,3.50977 1.33825,2.34827 1.33825,5.90854 v 16.56409 h -4.29252 v -16.26109 q 0,-3.45927 -1.66651,-5.20153 -1.64126,-1.76751 -4.64603,-1.76751 -1.94426,0 -3.53502,0.78275 -1.59076,0.78276 -2.55026,2.47452 -0.93426,1.66651 -0.93426,4.36827 z"
         id="text1747"
         aria-label="leptodon" />
    </g>
  </g>
</svg>
